<?xml version="1.0" standalone="no"?> 
<!DOCTYPE svg PUBLIC "-//W3C//DTD SVG 1.1//EN" "http://www.w3.org/Graphics/SVG/1.1/DTD/svg11.dtd" >
<svg xmlns="http://www.w3.org/2000/svg">
<defs>
  <font id="vHealthIconFont" horiz-adv-x="1911">
    <font-face font-family="vHealthIconFont"
      units-per-em="1024" ascent="1024"
      descent="0" />
    <missing-glyph horiz-adv-x="0" />
    <glyph glyph-name="add"
      unicode="&#xF101;"
      horiz-adv-x="1032.777142857143" d=" M623.8997942857143 97.2858514285715C619.6809142857143 42.7329828571428 574.1831314285715 0.6231771428572 519.4693485714286 0.6231771428572S419.2577828571429 42.7359085714287 415.0389028571428 97.2858514285715V406.8761600000001H105.4485942857143C47.5691885714285 407.08096 0.8133485714285 454.1674057142857 1.0181485714285 512.0468114285715S48.3093942857143 616.6820571428573 106.1917257142857 616.4772571428573L415.0418285714286 615.7370514285716V925.3273600000002C419.2607085714286 979.8802285714286 464.7584914285713 1021.9900342857144 519.4722742857142 1021.9900342857144S619.6838399999999 979.877302857143 623.9027199999999 925.3273600000002L624.6429257142856 616.4772571428573L933.4930285714285 615.7370514285716C988.045897142857 611.5181714285716 1030.1557028571426 566.0203885714287 1030.1557028571426 511.3066057142859S988.0429714285711 411.0950400000001 933.4930285714285 406.8761600000001H623.9027199999998V97.2858514285715z" />
    <glyph glyph-name="alert"
      unicode="&#xF102;"
      horiz-adv-x="1024" d=" M391.032 95.5750000000001H644.085C644.087 95.3000000000001 644.106 95.0260000000001 644.106 94.7510000000001C644.106 25.7170000000001 587.449 -30.2459999999999 517.559 -30.2459999999999S391.012 25.7170000000001 391.012 94.7510000000001C391.012 95.0260000000001 391.031 95.3000000000001 391.033 95.5750000000001zM921.595 251.8200000000001C933.59 234.413 934.861 211.8820000000001 924.89 193.2660000000001C914.922 174.6550000000001 895.352 163.0110000000001 874.033 163.0110000000001H161.082C139.763 163.0110000000001 120.193 174.6520000000001 110.225 193.2660000000001S101.525 234.4110000000001 113.522 251.8180000000001L227.415 417.0740000000001C227.415 448.6230000000001 227.415 568.816 227.415 623.248C227.415 762.289 327.666 878.19 460.664 904.311V967.802C460.664 998.837 486.136 1023.999 517.558 1023.999S574.452 998.837 574.454 967.802V904.3130000000002C707.452 878.1940000000001 807.703 762.293 807.703 623.25C807.703 591.2740000000001 807.703 467.663 807.703 417.076L921.596 251.8200000000001z" />
    <glyph glyph-name="allergy-view"
      unicode="&#xF103;"
      horiz-adv-x="1061" d=" M724.092 853.932C827.341 810.12 909.277 725.169 949.816 619.376H902.465C866.3570000000001 699.602 802.8820000000001 764.5899999999999 724.091 802.161V853.932zM410.257 856.436V802.1610000000001C332.467 765.067 269.607 701.249 233.273 622.4259999999999H179.68C221.419 728.847 305.171 813.816 410.257 856.437zM944.921 305.5410000000001C902.898 205.427 823.3420000000001 125.298 724.0930000000001 83.183V128.855C800.8770000000001 165.4690000000001 863.115 228.121 899.6550000000001 305.5410000000001H944.921zM182.127 308.5900000000001H233.272C269.606 229.7670000000001 332.466 165.9490000000001 410.2560000000001 128.855V80.679C307.1850000000001 122.482 224.638 205.025 182.126 308.591z M1135.709 525.871C1135.709 524.261 1135.709 522.651 1135.709 521.577C1127.6970000000001 506.548 1116.481 488.299 1114.8780000000002 466.829C1112.7420000000002 441.602 1126.094 420.1329999999999 1135.709 403.4939999999999C1135.709 402.421 1135.709 401.8839999999999 1135.709 400.81C1132.5040000000001 391.685 1119.151 404.03 1113.81 407.7879999999999C1096.184 420.6699999999999 1074.2849999999999 436.2349999999999 1059.864 447.507C1040.102 435.699 1019.271 423.89 999.509 412.082C999.509 398.663 999.509 385.245 999.509 372.363C992.565 376.1199999999999 985.088 381.488 976.542 385.782C970.133 389.5389999999999 959.984 397.054 954.109 397.5899999999999C950.37 398.127 944.495 395.4429999999999 939.688 394.906C877.73 384.708 822.182 406.714 782.6569999999999 429.257C771.4409999999999 435.698 744.2009999999999 450.727 744.7349999999999 463.0719999999999C745.2689999999999 470.0499999999998 762.3609999999999 482.3949999999999 769.8389999999999 487.7619999999999C791.204 502.2539999999999 812.568 512.452 836.6039999999999 520.5029999999999C849.4229999999999 524.7969999999999 863.31 524.7969999999999 877.1969999999999 529.6279999999999C883.6059999999999 531.7749999999999 891.0839999999998 537.1419999999999 898.0279999999999 540.3629999999999C919.393 551.098 939.6889999999999 562.906 960.5199999999998 570.9569999999999C960.5199999999998 555.9279999999999 960.5199999999998 540.8999999999999 960.5199999999998 525.334C999.5109999999999 515.673 1029.955 496.8869999999999 1059.866 478.101C1076.424 488.836 1097.254 505.475 1114.8799999999999 517.8199999999999C1120.2209999999998 522.114 1132.5059999999999 532.312 1135.7109999999998 525.871zM812.568 485.616C809.3629999999999 453.412 856.366 458.242 852.093 486.689C850.491 496.8869999999999 843.0129999999999 505.4749999999999 827.524 502.254C817.91 500.107 813.103 493.129 812.569 485.615z M316.509 474.764C316.509 514.1800000000001 284.723 546.134 245.5130000000001 546.134H173.7700000000001V403.395H245.5130000000001C284.723 403.395 316.509 435.348 316.509 474.765z M119.074 522.3430000000001V427.183H70.996C44.856 427.183 23.665 448.485 23.665 474.763S44.856 522.3430000000001 70.996 522.3430000000001H119.074zM142.739 546.133H70.996C31.786 546.133 0 514.1800000000001 0 474.7629999999999S31.786 403.3929999999999 70.996 403.3929999999999H142.739V546.132z M613.804 900.248C609.01 903.748 606.167 909.4 606.174 915.42V928.271C605.917 945.288 594.653 960.072 578.566 964.504V971.465C578.568 975.85 577.7370000000001 980.194 576.12 984.257C596.597 985.665 612.508 1003.035 612.522 1024C592.796 1023.997 576.1750000000001 1008.959 573.7900000000001 988.957C567.7690000000001 999.27 556.8890000000001 1005.595 545.1340000000001 1005.616V983.007C551.3740000000001 983.007 556.4330000000001 977.839 556.4330000000001 971.465V964.504C540.5400000000001 959.919 529.4950000000001 945.198 529.291 928.33V915.479C529.2700000000001 909.422 526.3850000000001 903.748 521.5450000000001 900.248C500.8020000000001 885.384 489.0250000000001 860.648 490.3840000000001 834.802C494.4760000000001 793.3620000000001 529.2090000000001 762.19 569.9660000000001 763.378S643.6580000000001 797.7130000000001 645.4290000000001 839.3230000000001C645.1600000000001 863.663 633.3760000000001 886.364 613.8030000000001 900.2470000000001z M623.571 174.99L645.0830000000001 197.2670000000001L663.0680000000001 179.899L641.575 157.6420000000001C665.4430000000001 130.6420000000001 671.4340000000001 102.941 659.5490000000001 74.5400000000001C658.1200000000001 71.1260000000001 656.0680000000001 68.0090000000001 653.498 65.3470000000001C642.0690000000001 53.5120000000001 623.21 53.1830000000001 611.3760000000001 64.6120000000001L531.6930000000001 141.5620000000001C529.0150000000001 144.1480000000002 526.8460000000001 147.2130000000001 525.2970000000001 150.5980000000001C518.4530000000001 165.5590000000001 525.0330000000001 183.2360000000001 539.9940000000001 190.0790000000001C567.8880000000001 202.84 595.7480000000002 197.8100000000001 623.5720000000001 174.99zM500.229 142.064L611.086 35.011C596.468 19.874 589.159 12.305 589.159 12.305C567.831 -3.846 531.677 -4.309 480.698 10.915C461.88 61.51 461.081 97.6579999999999 478.302 119.3589999999999C478.302 119.3589999999999 485.611 126.9279999999999 500.229 142.065z" />
    <glyph glyph-name="allergy"
      unicode="&#xF104;"
      horiz-adv-x="1024" d=" M804.239 890.325L910.991 1000.87L997.668 917.167L891.011 806.72C1030.538 648.1379999999999 1040.781 482.5989999999999 921.74 310.1040000000001C919.063 306.225 916.072 302.5710000000001 912.798 299.1810000000001C879.715 264.923 825.124 263.9700000000001 790.865 297.053L298.497 772.528C295.091 775.817 291.962 779.3810000000001 289.141 783.184C260.7680000000001 821.434 268.7750000000001 875.442 307.0250000000001 903.815V903.815C474.902 1028.3410000000001 640.6400000000001 1023.844 804.239 890.3240000000001zM198.94 720.386L733.1990000000001 204.4580000000001C660.6600000000001 129.3410000000001 624.3900000000001 91.7830000000001 624.3900000000001 91.7830000000001C518.9740000000002 11.2270000000001 342.2070000000001 6.3750000000001 94.0910000000001 77.2270000000001C5.7160000000001 323.4620000000001 4.3970000000001 500.2900000000001 90.1310000000001 607.7110000000001C90.1310000000001 607.7110000000001 126.4010000000001 645.2690000000001 198.9400000000001 720.3860000000002z" />
    <glyph glyph-name="arrow-back"
      unicode="&#xF105;"
      horiz-adv-x="1024" d=" M12.491 478.991C16.555 469.558 22.299 460.941 29.444 453.562L345.894 138.242C379.2920000000001 107.122 431.337 108.04 463.616 140.319S496.814 224.6429999999999 465.693 258.041L296.166 427.568H939.237C984.5480000000002 427.519 1021.886 463.114 1024 508.376C1024 555.19 986.05 593.139 939.237 593.139H296.731L458.912 759.84C481.5890000000001 780.971 490.924 812.7950000000001 483.254 842.828S452.133 896.312 422.1 903.982C392.067 911.652 360.2430000000001 902.317 339.112 879.6400000000001L31.704 572.232C14.738 555.435 5.7 532.224 6.84 508.3770000000001C6.954 498.3230000000001 8.868 488.3710000000001 12.491 478.9920000000001z" />
    <glyph glyph-name="audio"
      unicode="&#xF106;"
      horiz-adv-x="1024" d=" M111.134 642.137L166.701 641.581L500.104 919.416V86.4649999999999L166.701 364.3H111.134C49.756 364.3 0 414.056 0 475.434V531.001C0 592.3789999999999 49.756 642.135 111.134 642.135zM764.603 437.65V438.206C747.708 398.101 715.8 366.194 675.6959999999999 349.299C657.2669999999999 340.63 635.5729999999999 342.737 619.1569999999999 354.79S594.2339999999999 386.911 596.9859999999999 407.0899999999999C599.7379999999998 427.2689999999999 613.3089999999999 444.325 632.3539999999999 451.5419999999999C645.6179999999999 457.1689999999999 656.1769999999999 467.7289999999999 661.805 480.9929999999999C667.6719999999999 494.8449999999999 667.6719999999999 510.4829999999999 661.805 524.3349999999999C659.096 530.9579999999999 655.1339999999999 536.9959999999999 650.136 542.116C645.015 547.1139999999999 638.978 551.077 632.355 553.7849999999999C605.3430000000001 566.492 593.197 598.27 604.847 625.7539999999999S647.7819999999999 666.6059999999999 675.697 656.0279999999999C716.45 638.8639999999999 748.713 606.2109999999999 765.387 565.2559999999999S781.779 478.3979999999999 764.6039999999999 437.6499999999999zM969.646 654.361V653.8050000000001C1053.187 456.015 960.665 227.942 762.9359999999999 144.255C744.507 135.586 722.8129999999999 137.693 706.3969999999999 149.746S681.4739999999999 181.867 684.2259999999999 202.0459999999999C686.9779999999998 222.2249999999999 700.5489999999999 239.281 719.5939999999999 246.498C822.7479999999999 289.8169999999999 889.8539999999999 390.782 889.8539999999999 502.6619999999999S822.747 715.507 719.5939999999999 758.8259999999999C700.55 766.0419999999999 686.9789999999999 783.0989999999999 684.2259999999999 803.2779999999999S689.9809999999999 843.5249999999999 706.3969999999999 855.578C722.813 867.6309999999999 744.507 869.7379999999999 762.9359999999999 861.069C856.0949999999999 821.6639999999999 930.241 747.5189999999999 969.646 654.3589999999999z" />
    <glyph glyph-name="calendar"
      unicode="&#xF107;"
      horiz-adv-x="1024" d=" M887.286 918.423H728.92V971.212C728.92 1000.366 705.286 1024.001 676.131 1024.001S623.342 1000.367 623.342 971.212V918.423H412.187V971.212C412.187 1000.366 388.553 1024.001 359.398 1024.001S306.6090000000001 1000.367 306.6090000000001 971.212V918.423H148.243C89.934 918.423 42.666 871.154 42.666 812.846V73.804C42.666 15.495 89.935 -31.7730000000001 148.243 -31.7730000000001H887.2850000000001C945.594 -31.7730000000001 992.862 15.4959999999999 992.862 73.8039999999999V812.8459999999999C992.862 871.1549999999999 945.593 918.4229999999998 887.2850000000001 918.4229999999998zM306.61 760.056V707.267C306.61 678.113 330.2440000000001 654.4780000000001 359.399 654.4780000000001S412.188 678.1120000000001 412.188 707.267V760.056H623.343V707.267C623.343 678.113 646.977 654.4780000000001 676.132 654.4780000000001S728.9209999999999 678.1120000000001 728.9209999999999 707.267V760.056H834.4979999999999V548.901H201.0329999999999V760.0559999999999H306.6099999999999zM201.033 126.592V390.5360000000001H834.498V126.5920000000001H201.033z" />
    <glyph glyph-name="calories"
      unicode="&#xF108;"
      horiz-adv-x="614" d=" M461.278 1024C390.637 1024 333.3710000000001 966.734 333.3710000000001 896.093C404.0120000000001 896.093 461.278 953.359 461.278 1024zM490.697 553.943V553.367C596.952 474.4069999999999 640.62 336.2249999999999 599.035 210.544S439.98 -0.001 307.598 -0.001C175.217 -0.001 57.747 84.864 16.1609999999999 210.544S18.2439999999999 474.4069999999999 124.499 553.367C143.8059999999999 567.847 155.1759999999999 590.5649999999999 155.197 614.698V666.756C155.21 745.718 215.46 811.627 294.103 818.709C288.033 863.0229999999999 250.191 896.059 205.464 896.092V921.673C264.285 921.537 313.541 877.079 319.685 818.5799999999999C399.086 812.371 460.3579999999999 746.142 460.3819999999999 666.499V614.697C460.362 590.803 471.593 568.294 490.696 553.941zM308.302 50.6950000000001C450.14 50.8710000000001 565.039 165.885 565.0740000000001 307.7230000000001H539.493C539.4580000000001 180.013 436.0120000000001 76.4530000000001 308.302 76.2760000000001V50.6950000000001z" />
    <glyph glyph-name="camera-off"
      unicode="&#xF109;"
      horiz-adv-x="1179.5005624296964" d=" M391.7907705376828 187.1443509561303L943.6004499437572 738.9540303622048L943.6004499437572 658.944575928009L1179.5005624296964 776.8946321709786L1179.5005624296964 305.0944071991001L943.6004499437572 423.0444634420698L943.6004499437572 293.889151856018C943.6004499437572 234.9141237345331 895.8306771653544 187.1443509561303 836.8556490438697 187.1443509561303L391.7907705376828 187.1443509561303zM42.5603119226097 208.5719448908885C17.00446648009 227.8371203599549 0.3931668537593 258.2584060832395 0 292.7096512935882L0 786.920386951631C-0.2948751406074 815.4249842609673 10.8120884927784 842.8975174263217 30.8635980886389 863.1456107986502C50.9151076499438 883.3937041709786 78.240203936108 894.8446884139482 106.7448008998875 894.8446884139482L728.7839100112486 894.8446884139482L42.5603119226097 208.6210899797525L42.5603119226097 208.5719448908885zM48.2612313844769 121.6329235005624L882.3155669381329 955.6872590542182C907.9205579302588 981.2922505070866 949.3996614263216 981.2922505070866 975.004652418448 955.6872590542182C1000.6096434105738 930.0822677165354 1000.6096434105738 888.6031642204724 975.004652418448 862.9981732283464L140.9503172103487 28.9438380202474C115.3453262182228 3.3388470281214 73.8662227221597 3.3388470281214 48.2612313844769 28.9438380202474C22.6562399316086 54.5488290123734 22.6562399316086 96.0279325084364 48.2612313844769 121.6329235005624z" />
    <glyph glyph-name="camera"
      unicode="&#xF10A;"
      horiz-adv-x="1664" d=" M1322.8346666666666 938.6666666666666C1381.7466666666664 938.6666666666666 1429.5013333333332 890.9093333333333 1429.5013333333332 831.9973333333334V106.6666666666667C1429.5013333333332 47.7546666666667 1381.744 0 1322.8346666666666 0H341.5013333333333C282.5893333333333 0 234.8346666666667 47.7573333333334 234.8346666666667 106.6666666666667V831.9973333333335C234.8346666666667 890.9093333333334 282.5893333333333 938.6666666666669 341.5013333333333 938.6666666666669H576.1679999999999L661.5013333333333 1024H1002.8346666666666L1088.168 938.6666666666669H1322.8346666666666zM832.1679999999999 280C739.384 280 664.1679999999999 355.216 664.1679999999999 448S739.384 616 832.1679999999999 616C924.9519999999998 616 1000.1679999999998 540.7840000000001 1000.1679999999998 448S924.9519999999998 280 832.1679999999999 280zM832.1679999999999 149.336C997.1146666666666 149.336 1130.8346666666666 283.0533333333333 1130.8346666666666 448.0026666666667S997.1173333333332 746.672 832.1679999999999 746.672C667.2213333333333 746.672 533.4986666666666 612.952 533.4986666666666 448.0026666666667S667.2186666666666 149.336 832.1679999999999 149.336z" />
    <glyph glyph-name="card"
      unicode="&#xF10B;"
      horiz-adv-x="1339" d=" M1339.077 132.073V892.044C1339.077 964.888 1282.794 1024 1213.539 1024H125.539C56.179 1024 0.001 964.887 0.001 892.044V132.073C0.001 59.1129999999999 56.075 0 125.539 0H1213.539C1282.7939999999999 0 1339.077 59.1130000000001 1339.077 132.073zM83.692 837.818V892.043C83.692 913.454 102.314 930.908 125.538 930.908H1213.538C1236.658 930.908 1255.384 913.453 1255.384 892.043V837.818H83.692z" />
    <glyph glyph-name="close"
      unicode="&#xF10C;"
      horiz-adv-x="1024" d=" M935.808 264.126C976.609 216.482 973.866 145.46 929.511 101.105S814.135 54.0070000000001 766.49 94.808L515.5160000000001 345.782L264.5420000000001 94.808C217.4550000000001 48.052 141.3800000000001 48.321 94.6240000000001 95.408S48.1370000000001 218.5700000000001 95.2240000000001 265.326L346.1980000000001 515.099L95.2240000000001 766.0730000000001C54.4230000000001 813.7170000000001 57.1660000000001 884.739 101.5210000000001 929.094S216.8970000000001 976.192 264.5420000000001 935.391L515.5160000000001 685.618L766.49 935.391C814.134 976.192 885.156 973.449 929.511 929.094S976.609 813.7180000000001 935.808 766.0730000000001L684.8340000000001 515.0990000000002L935.808 264.1250000000001z" />
    <glyph glyph-name="delete"
      unicode="&#xF10D;"
      horiz-adv-x="731" d=" M51.2 102.4C51.2 45.846 97.046 0 153.6 0H563.2C619.754 0 665.6 45.846 665.6 102.4V665.6H51.2V102.4zM409.6 512C409.6 540.277 437.108 563.2 471.04 563.2S532.48 540.277 532.48 512V204.8C532.48 176.5229999999999 504.972 153.5999999999999 471.04 153.5999999999999S409.6 176.5229999999999 409.6 204.8V512zM204.8 512C204.8 540.277 232.308 563.2 266.24 563.2S327.68 540.277 327.68 512V204.8C327.68 176.5229999999999 300.1720000000001 153.5999999999999 266.24 153.5999999999999S204.8 176.5229999999999 204.8 204.8V512zM563.2 819.2H716.8000000000001V716.8H1e-13V819.1999999999999H153.6000000000001C153.6000000000001 932.308 245.2920000000001 1024 358.4000000000001 1024S563.2 932.308 563.2 819.1999999999999z" />
    <glyph glyph-name="document"
      unicode="&#xF10E;"
      horiz-adv-x="1024" d=" M961.757 1024H305.0949999999999C254.0159999999999 1024.013 212.2829999999999 983.218 211.1349999999999 932.152V812.855H93.9489999999999C43.0699999999999 812.875 1.4179999999999 772.394 -0.0110000000001 721.5350000000001V64.345C-0.5790000000001 39.062 9.0689999999999 14.616 26.7509999999999 -3.4639999999999S68.6589999999999 -31.7329999999999 93.9479999999999 -31.7259999999999H750.61C775.9 -31.732 800.125 -21.5439999999999 817.807 -3.4639999999999S845.138 39.061 844.569 64.345V179.419H961.755C987.045 179.413 1011.27 189.601 1028.952 207.6810000000001S1056.283 250.206 1055.714 275.49V932.152C1054.566 983.218 1012.833 1024.0130000000001 961.754 1024zM738.999 73.846H105.563V707.282H211.136V272.85C211.426 221.164 253.409 179.417 305.096 179.418H739V73.845zM950.144 284.991H316.708V918.427H950.144V284.991z" />
    <glyph glyph-name="download"
      unicode="&#xF10F;"
      horiz-adv-x="832" d=" M360.532 276.833L85.714 551.651C57.944 581.453 58.764 627.895 87.568 656.6999999999999S162.814 686.324 192.617 658.5539999999999L334.8160000000001 510.8069999999999V932.3629999999998C334.8160000000001 974.137 368.6760000000001 1007.9999999999998 410.4530000000001 1007.9999999999998S486.09 974.1399999999998 486.09 932.3629999999998V505.7649999999999L637.366 657.0409999999999C667.168 684.8109999999999 713.61 683.9909999999999 742.415 655.1869999999999S772.039 579.9409999999999 744.269 550.1379999999999L466.425 272.2939999999999C459.844 265.9179999999999 452.152 260.7929999999999 443.733 257.1659999999999C414.62 245.6119999999999 381.391 253.4659999999998 360.5320000000001 276.8319999999999zM743.765 151.274C785.539 151.274 819.402 117.414 819.402 75.6369999999999S785.542 0 743.7650000000001 0H88.2360000000001C46.4620000000001 0 12.5990000000001 33.86 12.5990000000001 75.6369999999999S46.4590000000001 151.2739999999999 88.2360000000001 151.2739999999999H743.7650000000001z" />
    <glyph glyph-name="edit"
      unicode="&#xF110;"
      horiz-adv-x="1024" d=" M300.507 -1.223H3.047V283.7390000000001L560.2610000000001 817.541L857.721 532.5790000000001L300.507 -1.223zM902.89 591.3389999999999L605.4300000000001 876.3009999999999L695.1790000000001 962.279L992.6390000000002 677.317L902.8900000000002 591.3389999999999z" />
    <glyph glyph-name="email"
      unicode="&#xF111;"
      horiz-adv-x="1600" d=" M19.512195136 1024C8.702634176 1024 0 1015.297536 0 1004.4878079999997L0 984.9756159999998L800 370.9494400000003L1600 984.9756159999998L1600 1004.4878079999997C1600 1015.297536 1591.2973632 1024 1580.487808 1024L19.512195136 1024zM0 886.805824L0 63.0236160000004L482.31707328 516.6821760000003L0 886.805824zM1600 886.805824L1117.6829248 516.6821760000003L1600 63.0236160000004L1600 886.805824zM545.12195136 468.510464L56.707317056 9.3650559999996L1543.2926848 9.3650559999996L1054.878048 468.510464L823.7804864 291.0723840000001C809.7578176 280.2968959999999 790.2421824 280.2968959999999 776.2195136 291.0723840000001L545.12195136 468.510464z" />
    <glyph glyph-name="enlarge"
      unicode="&#xF112;"
      horiz-adv-x="1024" d=" M443.2053333333334 442.7360000000001C431.656 454.3013333333333 415.976 460.8000000000001 399.624 460.8000000000001S367.592 454.2986666666668 356.0426666666667 442.7360000000001L123.1146666666667 211.0373333333334V281.8746666666669C123.1146666666667 315.8346666666669 95.5546666666667 343.3653333333334 61.5573333333334 343.3653333333334S0.0026666666667 315.8346666666669 0.0026666666667 281.8746666666669V61.4906666666668C0.0026666666667 27.5306666666668 27.5626666666667 0 61.5573333333334 0H282.1733333333334C316.168 0 343.7280000000001 27.5306666666668 343.7280000000001 61.4906666666668S316.168 122.9813333333335 282.1733333333334 122.9813333333335H209.2906666666667L443.2026666666667 356.6480000000002C466.664 380.5573333333336 466.664 418.8240000000002 443.2026666666667 442.7360000000002z M962.1413333333333 1024H740.4426666666666C706.28 1024 678.584 996.3466666666666 678.584 962.2346666666668S706.28 900.4693333333333 740.4426666666666 900.4693333333333H814.1786666666667L578.6213333333333 665.7626666666667C556.9306666666666 641.1493333333334 558.28 603.904 581.6933333333333 580.9200000000001S642.4266666666666 557.2213333333334 666.7066666666666 579.2933333333333L900.2826666666666 811.528V740.376C900.2826666666666 706.2639999999999 927.9786666666666 678.6106666666667 962.1413333333333 678.6106666666667S1024 706.264 1024 740.376V961.7386666666666C1024.1306666666665 978.2053333333334 1017.672 994.0426666666666 1006.0586666666666 1005.7333333333333S978.6346666666666 1023.9973333333332 962.1413333333333 1023.9973333333332z" />
    <glyph glyph-name="envelope"
      unicode="&#xF113;"
      horiz-adv-x="1303" d=" M642.33 558.5450000000001L1247.421 983.767C1223.297 1009.311 1189.2340000000002 1023.901 1153.4950000000001 1023.999H131.1660000000002C95.4270000000002 1023.901 61.3630000000002 1009.311 37.2400000000002 983.767L642.3310000000001 558.5450000000001z M651.636 379.389L0 837.818V126.463C0 56.6189999999999 58.35 0 130.327 0H1172.945C1244.923 0 1303.272 56.619 1303.272 126.463V837.818L651.636 379.389z" />
    <glyph glyph-name="error"
      unicode="&#xF114;"
      horiz-adv-x="1024" d=" M512 1024C796.4426666666666 1024 1024 796.4426666666667 1024 512S796.4426666666666 0 512 0S0 227.5573333333334 0 512S227.5573333333334 1024 512 1024zM568.8879999999999 415.288L585.9546666666666 796.4453333333333H455.112L472.1786666666667 415.288H568.8906666666667zM455.112 284.4426666666667C455.112 261.6853333333334 460.8 244.6213333333334 472.1786666666667 233.2426666666668S500.6213333333333 216.1760000000002 523.3786666666666 216.1760000000002S563.1999999999999 221.864 574.5786666666665 233.2426666666668S591.6453333333333 261.6853333333334 591.6453333333333 284.4426666666667S585.9573333333333 324.264 574.5786666666665 335.6426666666667S546.136 352.7093333333334 523.3786666666666 352.7093333333334S483.5573333333333 347.0213333333334 472.1786666666667 335.6426666666667S455.112 307.2000000000001 455.112 284.4426666666667z" />
    <glyph glyph-name="external"
      unicode="&#xF115;"
      horiz-adv-x="992.4923076923077" d=" M827.0769230769231 192.9846153846154L827.0769230769231 137.8461538461538L165.4153846153846 137.8461538461538L165.4153846153846 854.6461538461538L385.9692307692308 854.6461538461538L385.9692307692308 1020.0615384615384L110.2769230769231 1020.0615384615384C49.3726601846154 1020.0615384615384 0 970.6888782769232 0 909.7846153846154L0 82.7076923076924C0 21.8034333538461 49.3726601846154 -27.5692307692309 110.2769230769231 -27.5692307692309L882.2153846153847 -27.5692307692309C943.1196435692308 -27.5692307692309 992.4923076923076 21.8034333538461 992.4923076923076 82.7076923076924L992.4923076923076 441.1076923076922L827.0769230769231 441.1076923076922L827.0769230769231 192.9846153846154z M910.3360000000002 1020.612923076923L606.5230769230769 1020.612923076923C560.8448803446154 1020.6129221316924 523.8153861907692 983.583427268923 523.8153861907692 937.9052307692308C523.8153861907692 892.2270341907692 560.8448803446154 855.1975392492308 606.5230769230769 855.1975384615384L708.5292307692307 855.1975384615384L432.8369230769231 579.5052307692308C411.1076328369232 558.5517213538461 402.5197048123078 527.4242339446153 410.4308665107693 498.2930628923076C418.3420282092308 469.1618910523076 441.4956102892309 446.6544561230769 470.8389730461539 439.5707644061538C500.1823350153846 432.4870719015384 531.0543525415385 441.9523513107692 551.3846153846155 464.2658461538462L827.0769230769231 739.9581538461538L827.0769230769231 639.0547692307691C827.0769230769231 593.3765718646154 864.1064172307692 556.3470769230769 909.7846153846154 556.3470769230769C955.4628135384615 556.3470769230769 992.4923076923076 593.3765718646154 992.4923076923076 639.0547692307691L992.4923076923076 937.3538461538462C992.6390311384616 959.28943616 984.0656147692308 980.3848356627692 968.658211446154 995.9990477587692C953.250816 1011.6132599335384 932.2716002461538 1020.4671732184617 910.3360000000002 1020.612923076923z" />
    <glyph glyph-name="eye"
      unicode="&#xF116;"
      horiz-adv-x="1024" d=" M515.836 662.02C425.603 662.02 352.4550000000001 586.929 352.4550000000001 494.3S425.6030000000001 326.58 515.836 326.58C606.069 326.58 679.217 401.671 679.217 494.3S606.069 662.02 515.836 662.02zM609.197 494.72C609.931 520.3620000000001 600.331 545.1790000000001 582.66 563.319S540.814 591.3140000000001 515.836 590.56V614.52C580.288 614.52 632.537 560.884 632.537 494.72H609.197z M1008.989 517.469C944.706 723.217 746.973 873.175 512.328 873.175S79.95 723.217 15.667 517.469C12.242 506.404 12.242 494.524 15.667 483.4589999999999C79.95 277.711 277.683 127.7529999999999 512.328 127.7529999999999S944.706 277.827 1008.989 483.5749999999999C1012.39 494.6039999999999 1012.39 506.4399999999999 1008.989 517.468zM512.328 287.903C397.854 287.903 305.055 383.0700000000001 305.055 500.465S397.854 713.027 512.328 713.027C626.802 713.027 719.601 617.86 719.601 500.465C719.601 444.0900000000001 697.763 390.024 658.892 350.1610000000001S567.3000000000001 287.903 512.3280000000001 287.903z" />
    <glyph glyph-name="familyhistory-left"
      unicode="&#xF117;"
      horiz-adv-x="725.3333333333333" d=" M247.3013333333334 450.4160000000001C292.0426666666666 450.3893333333334 328.312 414.0186666666667 328.368 369.1280000000001L328.4186666666667 0H307.9866666666667V369.0266666666667C307.9866666666667 402.656 280.8160000000001 429.9173333333333 247.3013333333334 429.9173333333333V163.6533333333334H187.912V61.5653333333333C187.912 27.5653333333333 161.3226666666666 0.0053333333334 128.5226666666667 0.0053333333334S69.1333333333333 27.5680000000001 69.1333333333333 61.5653333333333V163.6533333333334H9.744V368.6000000000002C9.7626666666667 470.6746666666668 70.5333333333333 562.1546666666668 162.5253333333333 598.5813333333334C187.5226666666667 582.5146666666667 216.3573333333333 574.0213333333334 245.7706666666666 574.0586666666668H247.304V450.9360000000001C203.976 450.8800000000001 168.864 414.4853333333334 168.8106666666666 369.5733333333335H188.6053333333333C188.6586666666666 403.1520000000002 214.9066666666667 430.3600000000002 247.3013333333333 430.4160000000002V450.4160000000002zM248.4026666666667 860.5173333333333C300.9253333333333 860.512 347.4026666666667 826.0853333333333 363.3066666666667 775.4053333333334S360.888 669.4533333333334 318 638.7546666666667C275.1146666666667 608.056 217.5333333333334 608.9946666666667 175.6453333333334 641.0746666666668S117.1973333333334 728.9946666666667 134.704 779.1306666666667C110.2453333333334 776.3466666666668 86.5706666666667 788.8960000000001 74.896 810.8320000000001S65.888 859.6880000000001 81.632 878.8400000000001C97.3786666666667 897.9920000000001 123.0426666666667 905.5306666666668 146.4666666666667 897.8853333333334S186.376 868.9440000000001 188.1066666666667 844.0880000000001C206.4186666666667 854.8560000000001 227.2186666666667 860.5226666666667 248.3946666666667 860.5173333333335zM577.72 738.8986666666667C497.896 738.8986666666667 433.1866666666666 802.72 433.1866666666666 881.4480000000001S497.896 1023.9973333333334 577.7199999999999 1023.9973333333334C657.5439999999999 1023.9973333333334 722.2533333333332 960.176 722.2533333333332 881.4480000000001S657.5439999999999 738.8986666666667 577.7199999999999 738.8986666666667zM722.192 596.528V334.5946666666668H649.9253333333334V97.784C649.9253333333334 58.4186666666667 617.5706666666666 26.5093333333333 577.6586666666667 26.5093333333333S505.3920000000001 58.4213333333332 505.3920000000001 97.784V334.5946666666667H433.1253333333334V596.5279999999999C433.1893333333334 641.7946666666666 455.0480000000001 684.3413333333333 492.0213333333334 711.1599999999999C545.9733333333334 684.7626666666665 609.3386666666668 684.7626666666665 663.2933333333334 711.1599999999999C700.2666666666667 684.3386666666665 722.1253333333334 641.7946666666666 722.1893333333334 596.5279999999999z M836.5813333333333 0.6426666666666H858.3893333333333V386.7146666666667C858.3893333333333 403.6186666666667 865.2213333333334 419.8293333333334 877.3813333333334 431.7786666666666S906.0293333333334 450.432 923.216 450.4186666666667V471.8666666666667C875.4853333333333 471.808 836.8026666666667 433.7680000000001 836.7439999999999 386.8240000000001L836.5786666666665 0.6453333333333zM923.216 643.4506666666667C995.4853333333334 643.4506666666667 1054.0693333333334 701.0666666666667 1054.0693333333334 772.1413333333334S995.4853333333334 900.832 923.216 900.832C850.9466666666667 900.832 792.3626666666667 843.2160000000001 792.3626666666667 772.1413333333334S850.9466666666667 643.4506666666667 923.216 643.4506666666667zM987.7706666666666 386.8213333333333C987.712 421.8773333333334 958.8613333333332 450.2986666666667 923.216 450.4160000000001V278.8293333333335H988.6426666666669V64.8800000000001C988.6426666666669 29.3440000000001 1017.9360000000001 0.5360000000001 1054.0693333333334 0.5360000000001S1119.496 29.3440000000001 1119.496 64.8800000000001V278.8293333333335H1184.9226666666668V385.8026666666668C1184.9120000000003 492.4800000000001 1117.986666666667 588.0933333333335 1016.666666666667 626.1840000000002C989.1280000000002 609.3920000000002 957.362666666667 600.5120000000002 924.9600000000002 600.5546666666669H923.2160000000003V471.8640000000003C970.906666666667 471.7466666666669 1009.5200000000002 433.7226666666669 1009.578666666667 386.8213333333336H987.770666666667z" />
    <glyph glyph-name="familyhistory-right"
      unicode="&#xF118;"
      horiz-adv-x="717.3333333333333" d=" M476.4693333333333 461.696V163.6506666666668H536.0186666666666V61.5626666666667C536.0186666666666 27.5626666666667 562.6799999999998 0.0026666666668 595.5679999999999 0.0026666666668S655.1173333333332 27.5653333333335 655.1173333333332 61.5626666666667V163.6506666666668H714.6666666666666V368.5973333333335C714.6479999999999 470.6720000000001 653.7146666666667 562.1520000000002 561.4773333333333 598.5786666666668C536.4133333333333 582.5120000000002 507.5013333333333 574.0186666666668 478.0106666666666 574.0560000000002H476.472V507.6746666666668C425.9093333333334 507.6426666666669 384.9173333333333 466.6506666666668 384.856 416.0533333333335L384.7973333333333 -0.0026666666665H422.7200000000001V393.0613333333335C422.7200000000001 430.9653333333335 438.5946666666667 461.6906666666667 476.472 461.6906666666667zM475.368 860.52C422.704 860.5146666666667 376.1040000000001 826.088 360.1573333333334 775.4106666666667S362.584 669.4586666666667 405.584 638.76C448.584 608.0613333333333 506.32 609 548.3199999999999 641.08S606.9253333333334 729 589.3706666666667 779.136C613.896 776.3520000000001 637.6320000000001 788.9013333333334 649.3386666666667 810.8373333333334S658.3706666666667 859.6933333333334 642.5813333333333 878.8453333333334C626.792 897.9973333333334 601.0613333333333 905.536 577.5733333333334 897.888S537.5573333333334 868.9466666666667 535.8213333333333 844.0906666666667C517.4613333333334 854.8586666666667 496.6026666666667 860.5253333333334 475.3706666666667 860.52zM476.8053333333333 462.408V508.2613333333334C530.3333333333333 508.2613333333334 583.5226666666666 475.6853333333333 583.5226666666666 393.8293333333334H543.144C543.0826666666667 431.6773333333333 513.4186666666667 462.3440000000001 476.808 462.4079999999999zM145.168 738.9013333333334C225.2053333333334 738.9013333333334 290.088 802.7226666666667 290.088 881.4506666666666S225.2053333333334 1024 145.168 1024C65.1306666666667 1024 0.248 960.1786666666666 0.248 881.4506666666666S65.1306666666667 738.9013333333334 145.168 738.9013333333334zM0.3093333333333 596.5306666666668V334.5946666666668H72.7706666666667V97.784C72.7706666666667 58.4186666666667 105.2106666666667 26.5093333333333 145.2293333333333 26.5093333333333S217.688 58.4213333333332 217.688 97.784V334.5946666666667H290.1466666666667V596.5306666666665C290.0826666666667 641.7973333333332 268.1626666666667 684.3439999999999 231.0906666666667 711.1653333333333C176.992 684.7679999999999 113.4586666666667 684.7679999999999 59.36 711.1653333333333C22.288 684.3439999999999 0.3706666666667 641.7973333333332 0.304 596.5306666666665z" />
    <glyph glyph-name="familyhistory"
      unicode="&#xF119;"
      horiz-adv-x="1194.6666666666665" d=" M247.3013333333334 450.4160000000001C292.0426666666666 450.3893333333334 328.312 414.0186666666667 328.368 369.1280000000001L328.4186666666667 0H307.9866666666667V369.0266666666667C307.9866666666667 402.656 280.8160000000001 429.9173333333333 247.3013333333334 429.9173333333333V163.6533333333334H187.912V61.5653333333333C187.912 27.5653333333333 161.3226666666666 0.0053333333334 128.5226666666667 0.0053333333334S69.1333333333333 27.5680000000001 69.1333333333333 61.5653333333333V163.6533333333334H9.744V368.6000000000002C9.7626666666667 470.6746666666668 70.5333333333333 562.1546666666668 162.5253333333333 598.5813333333334C187.5226666666667 582.5146666666667 216.3573333333333 574.0213333333334 245.7706666666666 574.0586666666668H247.304V450.9360000000001C203.976 450.8800000000001 168.864 414.4853333333334 168.8106666666666 369.5733333333335H188.6053333333333C188.6586666666666 403.1520000000002 214.9066666666667 430.3600000000002 247.3013333333333 430.4160000000002V450.4160000000002zM248.4026666666667 860.5173333333333C300.9253333333333 860.512 347.4026666666667 826.0853333333333 363.3066666666667 775.4053333333334S360.888 669.4533333333334 318 638.7546666666667C275.1146666666667 608.056 217.5333333333334 608.9946666666667 175.6453333333334 641.0746666666668S117.1973333333334 728.9946666666667 134.704 779.1306666666667C110.2453333333334 776.3466666666668 86.5706666666667 788.8960000000001 74.896 810.8320000000001S65.888 859.6880000000001 81.632 878.8400000000001C97.3786666666667 897.9920000000001 123.0426666666667 905.5306666666668 146.4666666666667 897.8853333333334S186.376 868.9440000000001 188.1066666666667 844.0880000000001C206.4186666666667 854.8560000000001 227.2186666666667 860.5226666666667 248.3946666666667 860.5173333333335zM577.72 738.8986666666667C497.896 738.8986666666667 433.1866666666666 802.72 433.1866666666666 881.4480000000001S497.896 1023.9973333333334 577.7199999999999 1023.9973333333334C657.5439999999999 1023.9973333333334 722.2533333333332 960.176 722.2533333333332 881.4480000000001S657.5439999999999 738.8986666666667 577.7199999999999 738.8986666666667zM722.192 596.528V334.5946666666668H649.9253333333334V97.784C649.9253333333334 58.4186666666667 617.5706666666666 26.5093333333333 577.6586666666667 26.5093333333333S505.3920000000001 58.4213333333332 505.3920000000001 97.784V334.5946666666667H433.1253333333334V596.5279999999999C433.1893333333334 641.7946666666666 455.0480000000001 684.3413333333333 492.0213333333334 711.1599999999999C545.9733333333334 684.7626666666665 609.3386666666668 684.7626666666665 663.2933333333334 711.1599999999999C700.2666666666667 684.3386666666665 722.1253333333334 641.7946666666666 722.1893333333334 596.5279999999999z M836.5813333333333 0.6426666666666H858.3893333333333V386.7146666666667C858.3893333333333 403.6186666666667 865.2213333333334 419.8293333333334 877.3813333333334 431.7786666666666S906.0293333333334 450.432 923.216 450.4186666666667V471.8666666666667C875.4853333333333 471.808 836.8026666666667 433.7680000000001 836.7439999999999 386.8240000000001L836.5786666666665 0.6453333333333zM923.216 643.4506666666667C995.4853333333334 643.4506666666667 1054.0693333333334 701.0666666666667 1054.0693333333334 772.1413333333334S995.4853333333334 900.832 923.216 900.832C850.9466666666667 900.832 792.3626666666667 843.2160000000001 792.3626666666667 772.1413333333334S850.9466666666667 643.4506666666667 923.216 643.4506666666667zM987.7706666666666 386.8213333333333C987.712 421.8773333333334 958.8613333333332 450.2986666666667 923.216 450.4160000000001V278.8293333333335H988.6426666666669V64.8800000000001C988.6426666666669 29.3440000000001 1017.9360000000001 0.5360000000001 1054.0693333333334 0.5360000000001S1119.496 29.3440000000001 1119.496 64.8800000000001V278.8293333333335H1184.9226666666668V385.8026666666668C1184.9120000000003 492.4800000000001 1117.986666666667 588.0933333333335 1016.666666666667 626.1840000000002C989.1280000000002 609.3920000000002 957.362666666667 600.5120000000002 924.9600000000002 600.5546666666669H923.2160000000003V471.8640000000003C970.906666666667 471.7466666666669 1009.5200000000002 433.7226666666669 1009.578666666667 386.8213333333336H987.770666666667z" />
    <glyph glyph-name="familyhistoryshort"
      unicode="&#xF11A;"
      horiz-adv-x="1102.6035751840168" d=" M450.3761925383806 0.4214669863303L450.3761925383806 77.9722754153523C450.3761925383806 134.7927034616194 425.8875415688749 180.8553245341746 367.4546710073606 180.8553245341746L367.4546710073606 0.4214669863303L0 0.4214669863303L0 41.2935580399579C0.0296894185119 194.3128208286014 94.0304833009464 331.4502926267087 236.3195803322818 386.0593705993691C274.9844173123028 361.9740851819139 319.5871384900106 349.2403964500527 365.081564466877 349.2987515289169L367.4546710073606 349.2987515289169L367.4546710073606 249.7880111377498C445.4559392975815 249.7398939053627 508.6913289421661 188.2879160126183 508.7896114069401 112.4375947171399L508.8059921766561 0.4214669863303L450.3761925383806 0.422489909569L450.3761925383806 0.4214669863303zM1102.0118302418507 0.4214669863303L654.8891925804417 0.4214669863303L654.8891925804417 382.9860041892746C654.9884979684542 450.8457767570978 688.8006506330178 514.6258138044165 745.9906608454259 554.8324534511041C829.4455690094636 515.2626007486856 927.4554581198738 515.2626007486856 1010.9103652071504 554.8324534511041C1068.0993524963196 514.6258138044165 1101.9115083911672 450.8447527570977 1102.0118302418507 382.9860041892746L1102.0118302418507 0.4214669863303zM369.159253064143 778.73161906204C450.4007631545741 778.7234292155626 522.2901070872765 727.1150298044164 546.8923972912723 651.1428783512092C571.4946874952682 575.1707279747634 543.1484594742376 492.3106324458465 476.8130837266036 446.2899867592008C410.4777090557309 400.2693399957939 321.4135496277603 401.6760048117771 256.6210005467929 449.7667197981073C191.8284514658254 497.8574347844374 166.2136503049422 581.5682858801263 193.2944942839117 656.7255131524711C155.4619851777077 652.5536380904311 118.8446948811777 671.3654677939012 100.7843141720294 704.2500821198739C82.7239337859096 737.1346964458464 86.849739184858 777.4897827129338 111.2063235499474 806.1994499768665C135.5629086687697 834.9091172407991 175.258684298633 846.2105486940063 211.4930847360673 834.7483847739222C247.7274840967403 823.2862219305994 273.2225041766562 791.3639544058885 275.9037658044164 754.101687318612C304.2284952092534 770.2435161640378 336.4036336656152 778.7408329085174 369.159253064143 778.73161906204zM366.9386891440589 181.9261905699265L366.9386891440589 250.6653842439538C284.3621791629863 250.6653842439538 202.3129118149316 201.8303860021031 202.3129118149316 79.1219722229233L264.6043823512093 79.1219722229233C264.6995938927445 135.8594745741325 310.4602017245005 181.8309801051526 366.9386891440589 181.9272145699265L366.9386891440589 181.9261905699265zM878.543677106204 596.4140192975815C755.0745993017875 596.4140192975815 654.9823561219769 692.0886823301788 654.9823561219769 810.1092391840168C654.9823561219769 928.1297964685594 755.0745993017875 1023.8044593471798 878.543677106204 1023.8044593471798C1002.012753833859 1023.8044593471798 1102.1050023974763 928.1297964685594 1102.1050023974763 810.1092391840168C1102.1050023974763 692.0886823301788 1002.012753833859 596.4140192975815 878.543677106204 596.4140192975815z" />
    <glyph glyph-name="file"
      unicode="&#xF11B;"
      horiz-adv-x="748" d=" M510.745 1024H69.647C31.182 1024 0 992.741 0 954.182V69.818C0 31.258 31.182 0 69.647 0H673.2549999999999C711.7199999999999 0 742.9019999999999 31.259 742.9019999999999 69.818V791.273L510.7449999999999 1024zM371.451 279.273H139.294V302.5460000000001H371.451V279.273zM603.608 349.091H139.2939999999999V372.3640000000001H603.608V349.091zM603.608 418.909H139.2939999999999V442.182H603.608V418.909zM603.608 488.727H139.2939999999999V512H603.608V488.727zM603.608 558.5450000000001H139.2939999999999V581.818H603.608V558.5450000000001zM603.608 628.364H139.2939999999999V651.637H603.608V628.364zM510.745 791.273V954.182L673.255 791.273H510.745z" />
    <glyph glyph-name="full-screen"
      unicode="&#xF11C;"
      horiz-adv-x="1023" d=" M762.734309 804.7859510000001C773.694439 804.713106 784.177951 800.276813 791.876683 792.453203C799.575415 784.629593 803.858732 774.059707 803.785886 763.069398L803.785886 613.608065C803.785886 590.721041 785.283122 572.168325 762.459577 572.168325C739.636033 572.168325 721.133268 590.722081 721.133268 613.608065L721.133268 664.164943L583.377171 526.0310890000001C573.218341 514.8513820000001 557.79278 510.108098 543.131057 513.6577560000001C528.469333 517.2074150000001 516.899382 528.483902 512.946992 543.080065C508.993561 557.676228 513.285203 573.272455 524.142309 583.770537L661.898407 721.9043899999999L610.92839 721.9043899999999C588.103805 721.9043899999999 569.602081 740.4581459999999 569.602081 763.34413C569.602081 786.230114 588.104846 804.78387 610.92839 804.78387L762.73535 804.78387L762.734309 804.7859510000001zM42.6260813 439.0431220000001L395.805138 439.0431220000001C419.346732 439.0431220000001 438.430179 419.959675 438.430179 396.4180810000001L438.430179 43.239024C438.430179 19.6974300000001 419.346732 0.61398 395.805138 0.61398L42.6260813 0.61398C19.0844878 0.61398 0.00104065041 19.6974300000001 0.00104065041 43.239024L0.00104065041 396.4180810000001C0.00104065041 419.959675 19.0844878 439.0431220000001 42.6260813 439.0431220000001zM109.608585 329.436618L109.608585 110.222569L328.822634 110.222569L328.822634 329.436618L109.608585 329.436618zM121.785236 870.245984L121.785236 511.11961L0 511.11961L0 947.1229919C0 989.5804878 36.3499187 1024 81.1905041 1024L941.809431 1024C986.650016 1024 1022.99993 989.5815285 1022.99993 947.1229919L1022.99993 78.260033C1022.99993 35.802537 986.650016 1.38302 941.809431 1.38302L512.554667 1.38302L512.554667 116.698537L901.213659 116.698537L901.213659 908.684488L121.785236 908.684488L121.785236 870.245984z" />
    <glyph glyph-name="health-heart"
      unicode="&#xF11D;"
      horiz-adv-x="1024" d=" M791.831 987.931C646.47 987.932 528.469 870.403 527.887 725.043C527.6139999999999 870.815 409.2199999999999 988.765 263.4479999999999 988.492S-0.2740000000001 869.826 -0.0010000000001 724.053C-0.0870000000001 678.367 11.8609999999999 633.4639999999999 34.6419999999999 593.863C40.0529999999999 585.021 46.1899999999999 575.519 52.3919999999999 565.885H222.1739999999999L320.2949999999999 737.1179999999999C324.9929999999999 745.256 333.6639999999999 750.2819999999999 343.0599999999999 750.315C352.4569999999999 750.2819999999999 361.1269999999999 745.256 365.8249999999999 737.1179999999999L528.4139999999999 458.789L637.2909999999998 641.636C641.9649999999998 649.733 650.5749999999998 654.7529999999999 659.9239999999999 654.833C669.1929999999999 654.836 677.7839999999999 649.977 682.5569999999999 642.0319999999999L728.2849999999999 565.884H793.7429999999998C808.3199999999998 565.884 820.1369999999998 554.067 820.1369999999998 539.49S808.3199999999998 513.096 793.7429999999998 513.096H713.5699999999998C704.3539999999998 513.037 695.7749999999999 517.789 690.9369999999998 525.633L660.2539999999998 576.7719999999999L551.0469999999998 393.6610000000001C546.3609999999998 385.5440000000001 537.7209999999998 380.5200000000001 528.3479999999998 380.4640000000001C518.9749999999998 380.5210000000001 510.3349999999999 385.5440000000001 505.6489999999998 393.6610000000001L343.1259999999999 671.33L260.1159999999999 526.1610000000001C255.3939999999999 517.9830000000001 246.6629999999999 512.95 237.2189999999999 512.964H52.9859999999999C38.4089999999999 512.964 26.5919999999999 501.147 26.5919999999999 486.5700000000001S38.4089999999999 460.176 52.9859999999999 460.176H131.6409999999999C288.2919999999999 267.299 527.8859999999999 37.866 527.8859999999999 37.866C529.9979999999998 39.912 902.4879999999998 396.433 1021.0649999999998 593.929C1043.8569999999997 633.505 1055.8279999999997 678.384 1055.774 724.053C1055.7379999999998 869.799 937.5769999999998 987.931 791.8299999999999 987.931z" />
    <glyph glyph-name="heart-rate"
      unicode="&#xF11E;"
      horiz-adv-x="1024" d=" M1016.77 561.623C874.636 369.5650000000001 710.701 193.519 528.034 36.7819999999999C528.034 36.7819999999999 157.926 371.971 38.858 561.7649999999999C13.491 601.2369999999999 0.032 646.781 0 693.2589999999999C0 834.2729999999999 118.172 948.5869999999998 263.944 948.5869999999998S527.888 834.2729999999999 527.888 693.2589999999999C527.888 834.2729999999999 646.0600000000001 948.5869999999998 791.8320000000001 948.5869999999998S1055.776 834.2729999999999 1055.776 693.2589999999999C1055.727 646.7189999999998 1042.2160000000001 601.1209999999999 1016.771 561.6229999999999zM812.779 831.278H728.987V709.693H603.3V628.636H728.987V507.0509999999999H812.779V628.636H938.466V709.693H812.779V831.2779999999999z" />
    <glyph glyph-name="help"
      unicode="&#xF11F;"
      horiz-adv-x="1024" d=" M512 1024C229.2302081896296 1024 0 794.7697918103704 0 512C0 229.2302051555555 229.2302081896296 0 512 0C794.7697948444445 0 1024 229.2302051555555 1024 512C1024 794.7697918103704 794.7697948444445 1023.9999999999998 512 1024zM542.72 244.6222222222223C529.5954579911111 232.5901918814815 512.1338087348148 226.4272592592594 494.3644444444444 227.5555555555557C476.5172333985184 226.3758165333335 458.9283995496296 232.3069383111112 445.44 244.0533333333333C422.6384311940741 271.6171089540742 422.6384311940741 311.494002157037 445.44 339.0577777777779C459.2210314429629 350.6334424177778 476.9875725274074 356.3514098725927 494.9333333333333 354.9866666666667C512.6047402666667 356.1391149511112 530.0068784355556 350.201914405926 543.2888888888888 338.488888888889C566.2323939555556 311.1910339318519 566.2323939555556 271.3511882903705 543.2888888888888 244.0533333333333L542.72 244.6222222222223zM666.7377777777776 585.9555555555555C647.2277098192593 559.158805997037 622.9247643496296 536.206024248889 595.0577777777777 518.2577777777778C578.0627584948147 506.7792186785185 562.7458157985185 492.9939706311111 549.5466666666666 477.2977777777778C542.6936521007407 466.4281376237037 539.3197769007406 453.7264894103704 539.8755555555555 440.8888888888889L539.8755555555555 418.1333333333334L440.32 418.1333333333334L440.32 446.0088888888889C439.0115176296296 468.9539018903704 444.1341284503704 491.8086261570371 455.1111111111111 512C470.0788303644445 534.5765762844444 489.4234237155555 553.9211696355555 512 568.8888888888889C531.6255819851851 581.5802576592594 549.2629268859259 597.1087890962963 564.3377777777778 614.9688888888888C572.6717565155556 626.5575446755556 577.0594607407406 640.5184216177778 576.8533333333334 654.7911111111111C577.7365287822222 669.6226322962964 570.8405524859259 683.8455819377778 558.6488888888889 692.3377777777778C543.526790637037 701.8203371140742 525.840754157037 706.3908860207407 508.0177777777777 705.4222222222222C462.8626287881481 703.3009478162962 418.8313038696296 690.6370707911111 379.4488888888889 668.4444444444445L338.4888888888889 749.2266666666667C392.7251535644444 780.1869729185186 454.1002289303703 796.4621520592593 516.551111111111 796.4444444444445C560.8265765925926 798.7603038814815 604.511847917037 785.4735397925926 640 758.8977777777777C670.0754966755554 734.7887081244444 686.9567548681481 697.8609561600001 685.5111111111111 659.3422222222223C686.0864011377777 634.3422134044445 679.5780604207407 609.6894088533334 666.7377777777776 588.2311111111112L666.7377777777776 585.9555555555555z" />
    <glyph glyph-name="home"
      unicode="&#xF120;"
      horiz-adv-x="1024" d=" M1007.591 602.14L548.683 1009.935C527.622 1028.688 495.852 1028.688 474.791 1009.935L16.439 602.14C-4.545 581.332 -5.568 547.739 14.111 525.693S67.283 500.8629999999999 90.331 519.3589999999999L123.11 548.249V79.3409999999999C123.11 17.9729999999998 172.858 -31.7750000000001 234.226 -31.7750000000001H400.9V412.6879999999999H623.131V-31.7750000000001H789.805C851.173 -31.7750000000001 900.921 17.973 900.921 79.3409999999999V548.2489999999999L933.7 519.3589999999999C956.748 500.8629999999999 990.241 503.6469999999999 1009.92 525.693S1028.576 581.3319999999999 1007.592 602.1399999999999z" />
    <glyph glyph-name="image"
      unicode="&#xF121;"
      horiz-adv-x="1024" d=" M896 213.334V810.6659999999999C896 857.604 857.604 896 810.666 896H213.334C166.396 896 128 857.604 128 810.6659999999999V213.3340000000001C128 166.396 166.396 128 213.334 128H810.6659999999999C857.604 128 896 166.396 896 213.334zM362.666 448L469.334 320L618.6659999999999 512L810.6659999999999 256H213.334L362.666 448z" />
    <glyph glyph-name="link"
      unicode="&#xF122;"
      horiz-adv-x="1024" d=" M512 0C794.769 0 1024 229.231 1024 512S794.769 1024 512 1024C229.231 1024 0 794.769 0 512S229.231 0 512 0zM433.231 275.692V748.307L669.539 511.999L433.231 275.6910000000001z" />
    <glyph glyph-name="medical-record"
      unicode="&#xF123;"
      horiz-adv-x="1024" d=" M984.243 442.2200000000001C984.469 522.8050000000001 924.139 590.707 844.0880000000001 599.966S689.7990000000001 556.888 671.624 478.379C653.4490000000001 399.87 697.134 320.2330000000001 773.11 293.371V258.534C773.11 156.504 690.398 73.792 588.368 73.792S403.6260000000001 156.504 403.6260000000001 258.534V452.249C526.7180000000001 477.375 615.0360000000001 585.7860000000001 614.7590000000001 711.415V827.01C656.1380000000001 850.9000000000001 676.3120000000001 899.604 663.9450000000002 945.756S609.7560000000002 1024 561.9750000000001 1024C514.1950000000002 1024 472.3720000000001 991.908 460.0050000000001 945.756S467.8120000000001 850.9000000000001 509.1910000000001 827.01V711.415C509.1910000000001 654.8420000000001 479.0100000000001 602.566 430.0160000000001 574.28S320.6600000000001 545.994 271.6660000000001 574.28C222.6720000000001 602.566 192.4910000000001 654.8420000000001 192.4910000000001 711.415V826.483C233.8700000000001 850.373 254.0440000000001 899.077 241.6770000000001 945.229S187.4880000000001 1023.473 139.7070000000001 1023.473C91.9270000000001 1023.473 50.1040000000001 991.381 37.7370000000001 945.229S45.5440000000001 850.373 86.9230000000001 826.483V711.415C86.6460000000001 585.7850000000001 174.9650000000001 477.375 298.0560000000001 452.249V258.534C298.0560000000001 98.201 428.0310000000001 -31.7739999999999 588.364 -31.7739999999999S878.672 98.2010000000001 878.672 258.5340000000001V293.8990000000001C941.605 316.1480000000002 983.828 375.4710000000001 984.239 442.2200000000002zM825.893 495.003C855.044 495.003 878.676 471.3710000000001 878.676 442.2200000000001S855.0440000000001 389.437 825.893 389.437C796.7420000000001 389.437 773.11 413.069 773.11 442.2200000000001S796.742 495.003 825.893 495.003z" />
    <glyph glyph-name="medication"
      unicode="&#xF124;"
      horiz-adv-x="792" d=" M761.483 931.322V1024H455.571V931.322H425.056V869.434H792.15V931.322z M336.427 931.26V1024H30.515V931.26H0V869.434H367.0940000000001V931.26z M425.057 811.472V90.423C425.057 40.484 466.009 0 516.5260000000001 0H700.6830000000001C751.2000000000002 0 792.152 40.484 792.152 90.423V811.472H425.0580000000001zM505.625 305.103C493.467 317.079 486.633 333.348 486.633 350.315S493.467 383.551 505.625 395.527L552.045 441.4169999999999L643.5139999999999 350.9939999999999L597.0169999999999 305.0289999999999C584.8929999999999 293.0199999999999 568.43 286.277 551.2669999999999 286.2919999999999S517.6529999999999 293.0759999999999 505.5479999999999 305.1049999999999H505.624zM700.987 163.816H518.8879999999999C526.5049999999999 207.6460000000001 564.9509999999999 239.6800000000001 609.9369999999999 239.6800000000001S693.3689999999999 207.6460000000001 700.9859999999999 163.816zM609.9 57.042C564.65 57.087 526.093 89.5260000000001 518.812 133.6760000000001H701.063C693.616 89.6760000000001 655.103 57.433 609.975 57.4190000000001L609.899 57.0420000000001zM711.201 417.8300000000001L664.933 372.091L573.4639999999999 462.514L619.732 508.253C644.99 533.2230000000001 685.942 533.2230000000001 711.201 508.253S736.4590000000001 442.8000000000001 711.201 417.8300000000001z M0 811.472V90.423C0 40.484 40.96 0 91.488 0H275.607C326.134 0 367.095 40.484 367.095 90.423V811.472H0.001zM184.805 527.1659999999999C230.184 527.312 268.954 494.869 276.293 450.6079999999999H93.699C101.014 494.728 139.571 527.1279999999999 184.805 527.1659999999999zM275.912 420.3920000000001C268.293 376.562 229.839 344.528 184.844 344.528S101.394 376.562 93.776 420.3920000000001H275.913zM126.177 143.923L80.357 189.21C64.014 205.3630000000001 57.632 228.9050000000001 63.614 250.9700000000001S87.033 290.269 109.358 296.182C131.683 302.0940000000001 155.503 295.7860000000001 171.845 279.6330000000001L218.351 233.668L126.863 143.245L126.177 143.923zM286.28 76.106C274.163 64.087 257.703 57.331 240.536 57.331S206.909 64.087 194.792 76.106L148.514 121.845L240.002 212.268L286.28 166.529C298.42 154.533 305.229 138.2530000000001 305.2 121.286S298.308 88.0619999999999 286.128 76.106H286.28z" />
    <glyph glyph-name="menu"
      unicode="&#xF125;"
      horiz-adv-x="1024" d=" M176.443 335.163H847.557C880.402 335.163 907.028 308.5370000000001 907.028 275.692V276.086C907.028 243.241 880.402 216.615 847.557 216.615H176.443C143.598 216.615 116.972 243.241 116.972 276.086V275.692C116.972 308.5370000000001 143.598 335.163 176.443 335.163z M176.443 571.471H847.557C880.402 571.471 907.028 544.845 907.028 512V512.394C907.028 479.549 880.402 452.923 847.557 452.923H176.443C143.598 452.923 116.972 479.549 116.972 512.394V512C116.972 544.845 143.598 571.471 176.443 571.471z M176.443 807.778H847.557C880.402 807.778 907.028 781.152 907.028 748.307V748.701C907.028 715.856 880.402 689.23 847.557 689.23H176.443C143.598 689.23 116.972 715.856 116.972 748.701V748.307C116.972 781.152 143.598 807.778 176.443 807.778z" />
    <glyph glyph-name="mic"
      unicode="&#xF126;"
      horiz-adv-x="600.1722113502935" d=" M599.9962887514677 502.5200103953034C599.9962887514677 342.4633998277888 515.1619647123288 206.3288810958905 360.0193738395303 180.0307806183954L360.0193738395303 109.7765122504893L458.1917477573385 109.7765122504893C488.2698630763209 109.7765122504893 512.7319556007827 85.3144187240705 512.7319556007827 55.2363044070451C512.7319556007827 25.1581900900196 488.2158626066536 0.6960995694717 458.1917477573385 0.6960995694717L152.7665832328767 0.6960995694717C122.6884679138943 0.6960995694717 98.2263746880626 25.1581900900196 98.2263746880626 55.2363044070451C98.2263746880626 85.3144187240705 122.6884679138943 109.7765122504893 152.7665832328767 109.7765122504893L250.938957150685 109.7765122504893L250.938957150685 180.0307806183954C95.7963654763209 206.2748806262231 0.0540002059523 342.4633998277888 0.0540002059523 502.5200103953034L0.0540002059523 546.1521774716243C-0.5400020595225 572.9902796399217 21.2760811459883 597.8303744500979 48.6541856062622 600.8543857221135C63.9362438763209 602.5283922661449 79.3803028540117 597.2903717573386 91.1523477291585 586.5443313972603C102.9243922035225 575.7982900352251 109.5124174403131 560.7862326105676 109.1884166262231 545.5041748414874L109.1884166262231 502.5740108649707C109.1884166262231 382.261551592955 185.2207061917808 284.4131784892368 305.5331654637965 284.4131784892368C425.8456247358121 284.4131784892368 490.9698725322896 382.3155520626224 490.9698725322896 502.5740108649707L490.9698725322896 546.2061769393347C490.7538716555773 559.9222301056752 496.5858943248532 574.0702840234834 506.8999339334638 584.5463240391389C517.2139725401174 595.0223640547945 531.3080269902152 601.0703865988258 545.5100813776908 601.0703865988258C559.7121347632094 601.0703865988258 573.8061892133072 595.076363522505 584.1202278199609 584.5463240391389C594.4342674285714 574.016283553816 600.2662900978473 559.9222301056752 600.050289221135 545.6661752485322L600.050289221135 502.5200103953034L599.9962887514677 502.5200103953034zM300.0251446105675 339.5473894951077C222.4808489080235 339.5473894951077 160.0026100978474 413.5276712328768 160.0026100978474 505.4900221996087L160.0026100978474 858.057367295499C160.0026100978474 949.9657175921722 222.4268484383562 1024 300.0251446105675 1024C377.6234407827789 1024 440.0476791232877 950.0197177612524 440.0476791232877 858.057367295499L440.0476791232877 505.4900221996087C440.0476791232877 413.5816717025441 377.6234407827789 339.5473894951077 300.0251446105675 339.5473894951077z" />
    <glyph glyph-name="mic_off"
      unicode="&#xF127;"
      horiz-adv-x="884.7279843444227" d=" M318.277214183953 224.0949484461839L398.4135194050881 304.2312546692761C423.7936169080235 291.4872059491195 453.0077277181996 284.3591780195696 485.4618516790607 284.3591780195696C605.7743109510762 284.3591780195696 670.8985597495107 382.261551592955 670.8985597495107 502.5200103953034L670.8985597495107 546.1521774716243C670.6825588727984 559.8682296360079 676.5145805401174 574.016283553816 686.828620148728 584.4923235694716C697.1426597573386 594.9683635851272 711.2367132054794 601.0163861291585 725.438767592955 601.0163861291585C739.6408219804305 601.0163861291585 753.7348754285714 595.0223640547945 764.048915037182 584.4923235694716C774.3629536438356 573.9622830841488 780.1949763131115 559.8682296360079 779.9789754363991 545.612174778865L779.9789754363991 502.4660109275931C779.9789754363991 342.4094003600783 695.1446513972603 206.2748806262231 540.0020595225049 179.9767801487281L540.0020595225049 109.7225127827788L638.17443444227 109.7225127827788C668.2525487592955 109.7225127827788 692.7146422857143 85.2604192563601 692.7146422857143 55.1823039373777C692.7146422857143 25.1041896203523 668.1985492915851 0.6420940900197 638.17443444227 0.6420940900197L332.7492689158513 0.6420940900197C302.6711545988258 0.6420940900197 278.2090610724071 25.1041896203523 278.2090610724071 55.1823039373777C278.2090610724071 85.2604192563601 302.6711545988258 109.7225127827788 332.7492689158513 109.7225127827788L430.9216438356164 109.7225127827788L430.9216438356164 179.9767801487281C388.7474834285714 187.104807076321 350.9473390215264 202.3868658473582 318.277214183953 224.0409479765167L318.277214183953 224.0949484461839zM186.4627109823875 431.725740336595C182.1966949197652 454.5678277886497 179.9826866849315 478.2739177455969 179.9826866849315 502.5200103953034L179.9826866849315 546.1521774716243C179.3886845244618 572.9902796399217 201.2047670606654 597.8303744500979 228.5828719217221 600.8543857221135C243.8649306927593 602.5283922661449 259.3089888688845 597.2903717573386 271.0810341448141 586.5443313972603C282.8530794207437 575.7982900352251 289.4411036555773 560.7862326105676 289.1171028414872 545.5041748414874L289.1171028414872 534.3801321956947L186.5167114520548 431.7797408062623L186.4627109823875 431.725740336595zM440.3716799373777 346.2434146692759L619.9763653385519 525.8481000704501L619.9763653385519 505.4900221996087C619.9763653385519 413.5816717025441 557.552126998043 339.5473894951077 479.9538308258316 339.5473894951077C466.1837781917808 339.5473894951077 452.8997277808219 341.8693976673191 440.3176794677103 346.2434146692759L440.3716799373777 346.2434146692759zM339.9852967827789 585.2483261369863L339.9852967827789 858.057367295499C339.9852967827789 949.9657175921722 402.4095351232877 1024 480.007831295499 1024C555.5541196399217 1024 616.7903526575342 953.7457320328768 619.8683643992172 865.1313937534246L339.9852967827789 585.2483261369863zM44.1721684665362 204.6008740821919L807.8430815185909 968.2717874348336C831.2791711311154 991.7078768469668 869.2413159452054 991.7078768469668 892.6774055577299 968.2717874348336C916.1134951702544 944.8356980227006 916.1134951702544 906.873553409002 892.6774055577299 883.4374637964775L129.0064918043053 119.7665510450099C105.5704031937378 96.3304614324854 67.6082578786693 96.3304614324854 44.1721684665362 119.7665510450099C20.7360790544031 143.2026396555774 20.7360790544031 181.1647844696675 44.1721684665362 204.6008740821919z" />
    <glyph glyph-name="minus"
      unicode="&#xF128;"
      horiz-adv-x="3584" d=" M1441.826 147.006H363.6400000000001C162.0380000000001 147.706 -0.7799999999999 311.702 -0.0499999999999 513.3S164.6440000000001 877.72 366.2440000000001 876.99L1441.8480000000002 874.42L2171.8140000000003 876.99L3247.4180000000006 874.42C3437.4140000000007 859.7139999999999 3584.0540000000005 701.266 3584.0540000000005 510.73S3437.4000000000005 161.73 3247.4180000000006 147.038H1441.8540000000005z" />
    <glyph glyph-name="mobile"
      unicode="&#xF129;"
      horiz-adv-x="746.6666666666666" d=" M564.0666666666666 476.432C462.312 469.864 381.8293333333334 385.9920000000001 381.8293333333334 283.4906666666668C381.8293333333334 257.2640000000001 387.0986666666667 232.2586666666669 396.6453333333334 209.4533333333334H1e-13V861.0880000000001H564.0666666666667V476.4266666666667zM424.4106666666667 162.9093333333334C457.6586666666666 121.6613333333334 507.5866666666666 94.1973333333334 564.0693333333334 90.552V69.8186666666668C564.0693333333334 31.2586666666668 532.5013333333334 0 493.5626666666667 0H70.512C31.5706666666667 0 0.0026666666667 31.2586666666666 0.0026666666667 69.8186666666668V162.9093333333334H424.4133333333333zM317.288 46.5440000000001V116.3626666666668H246.7813333333334V46.5440000000001H317.288zM477.9306666666666 563.9546666666668C488.128 580.1546666666667 493.5413333333333 598.8586666666667 493.5599999999999 617.9466666666667C493.5599999999999 675.7866666666667 446.2079999999999 722.6746666666668 387.7973333333333 722.6746666666668S282.0346666666666 675.7866666666667 282.0346666666666 617.9466666666667C282.0346666666666 675.7866666666667 234.6826666666666 722.6746666666668 176.2719999999999 722.6746666666668S70.5093333333333 675.7866666666667 70.5093333333333 617.9466666666667C70.5226666666666 598.8826666666668 75.9146666666666 580.2026666666668 86.0799999999999 564.0106666666668C133.7919999999999 486.1626666666667 282.0933333333333 348.6800000000001 282.0933333333333 348.6800000000001C355.2879999999999 412.9680000000001 420.976 485.1760000000002 477.9306666666665 563.9520000000001zM411.2986666666667 674.5600000000001V639.6506666666667H446.552V616.3786666666667H411.2986666666667V581.4693333333333H387.7946666666667V616.3786666666667H352.5413333333334V639.6506666666667H387.7946666666667V674.5600000000001H411.2986666666667zM493.56 1024H70.5093333333333C31.568 1024 0 992.7413333333334 0 954.1813333333334V907.6373333333333H564.0666666666666V954.1813333333334C564.0666666666666 992.7413333333334 532.4986666666666 1024 493.56 1024zM376.0453333333333 954.1813333333334H188.0213333333333V977.4533333333334H376.0453333333333V954.1813333333334zM434.8026666666666 954.1813333333334C428.312 954.1813333333334 423.0506666666666 959.392 423.0506666666666 965.8186666666666S428.312 977.4533333333334 434.8026666666666 977.4533333333334C441.2933333333333 977.4533333333334 446.5546666666667 972.2426666666667 446.5546666666667 965.8186666666666S441.2933333333333 954.1813333333334 434.8026666666666 954.1813333333334zM576.9386666666667 118.2613333333334C668.9413333333333 118.2613333333334 743.6666666666666 192.3146666666667 743.6666666666666 283.4906666666668S668.9413333333333 448.7200000000002 576.9386666666667 448.7200000000002C484.936 448.7200000000002 410.2106666666667 374.6666666666668 410.2106666666667 283.4906666666668S484.936 118.2613333333334 576.9386666666667 118.2613333333334zM500.5653333333333 302.6186666666668C508.0346666666666 309.9866666666667 519.4533333333333 309.9866666666667 526.9226666666666 302.6186666666668L562.5039999999999 267.5066666666669L633.6666666666666 337.7280000000001C641.1333333333333 345.0960000000001 652.5546666666667 345.0960000000001 660.024 337.7280000000001S667.4906666666667 319.0880000000001 660.024 311.7200000000002L575.6826666666667 228.9280000000001C572.168 225.4613333333334 567.336 223.7253333333333 562.504 223.7253333333333S552.84 225.4586666666667 549.3253333333333 228.9280000000001L501.0053333333333 276.6080000000001C493.5386666666666 283.976 493.5386666666666 295.2480000000001 500.5653333333333 302.616z" />
    <glyph glyph-name="more"
      unicode="&#xF12A;"
      horiz-adv-x="1024" d=" M618.278 110.499C614.148 57.1170000000001 569.6270000000001 15.908 516.086 15.908S418.024 57.117 413.894 110.499V413.451H110.942C54.303 413.6510000000001 8.55 459.729 8.75 516.368S55.028 618.76 111.667 618.5600000000001L413.8950000000001 617.835V920.787C418.0250000000001 974.169 462.546 1015.378 516.087 1015.378S614.149 974.169 618.279 920.787L619.004 618.559L921.232 617.8340000000001C974.614 613.704 1015.823 569.183 1015.823 515.642S974.614 417.5800000000001 921.232 413.4500000000001H618.28V110.4980000000001z" />
    <glyph glyph-name="phone"
      unicode="&#xF12B;"
      horiz-adv-x="1024" d=" M970.686 271.333L884.782 357.237C862.0880000000001 379.956 831.293 392.722 799.1800000000001 392.722S736.273 379.956 713.5780000000001 357.237L680.3050000000001 323.964C654.98 297.79 620.1850000000001 282.9129999999999 583.7660000000001 282.685S512.369 296.899 486.7180000000001 322.7539999999999L336.0830000000001 473.3889999999999C283.8780000000001 526.1829999999999 283.8780000000001 611.1569999999999 336.0830000000001 663.9509999999999L369.3560000000001 697.2239999999999C392.0750000000001 719.9179999999999 404.8410000000001 750.713 404.8410000000001 782.8259999999999S392.0750000000001 845.733 369.3560000000001 868.4279999999999L284.0570000000002 955.542C261.3630000000001 978.261 230.5680000000002 991.027 198.4550000000001 991.027S135.5480000000001 978.261 112.8530000000001 955.542L69.9010000000001 912.59C-58.3499999999999 784.3389999999999 69.9010000000001 570.183 326.4040000000001 313.681S797.0620000000001 -71.0730000000001 925.3130000000002 57.1779999999999L968.2650000000002 100.1299999999999C991.3080000000002 122.5009999999999 1004.511 153.1169999999999 1004.9650000000001 185.2299999999999S993.0860000000002 248.319 970.6850000000002 271.3329999999999z" />
    <glyph glyph-name="pill"
      unicode="&#xF12C;"
      horiz-adv-x="1024" d=" M968.966 492.309L750.638 711.255L531.692 929.583C454.048 1009.974 339.069 1042.214 230.948 1013.914S38.388 901.175 10.087 793.053C-18.214 684.931 14.027 569.953 94.418 492.309L531.692 55.035C653.034 -62.1610000000001 845.912 -60.4850000000001 965.199 58.802S1086.162 370.9680000000001 968.9660000000002 492.309zM881.758 142.242C809.316 69.89 691.9590000000001 69.89 619.517 142.242L444.4840000000001 317.275L706.725 579.516L881.758 404.483C954.11 332.041 954.11 214.684 881.758 142.242z" />
    <glyph glyph-name="refresh"
      unicode="&#xF12D;"
      horiz-adv-x="1024" d=" M891.055 989.867C849.6669999999999 989.868 816.038 956.463 815.762 915.076V809.6659999999999C775.448 849.053 728.1189999999999 880.549 676.2199999999999 902.527C563.8389999999999 949.656 437.2349999999999 949.656 324.8549999999999 902.527C136.7379999999999 823.653 24.8139999999999 628.499 51.7309999999999 426.3000000000001S237.7249999999999 65.0220000000001 439.9249999999999 38.106C642.1249999999999 11.1899999999999 837.2779999999999 123.1130000000001 916.1519999999998 311.23C930.4849999999998 349.054 912.3709999999998 391.444 875.1309999999999 407.23S794.8309999999999 406.559 777.6139999999998 369.958C747.1019999999999 297.7869999999999 689.6629999999998 240.348 617.4919999999997 209.836C542.7069999999998 178.321 458.3679999999997 178.321 383.5829999999998 209.836C273.7719999999997 257.712 202.7759999999998 366.115 202.7759999999998 485.909S273.7719999999998 714.106 383.5829999999998 761.982C458.3679999999997 793.497 542.7069999999998 793.497 617.4919999999997 761.982C653.8439999999997 747.7729999999999 687.0869999999998 726.634 715.3719999999997 699.74C718.8859999999997 696.2259999999999 720.8929999999997 692.713 723.9049999999997 689.199H640.0789999999997C598.4959999999998 689.199 564.7859999999997 655.489 564.7859999999997 613.906S598.4959999999998 538.6129999999999 640.0789999999997 538.6129999999999H891.0539999999997C932.6369999999998 538.6129999999999 966.3469999999998 572.3229999999999 966.3469999999998 613.906V915.076C966.0709999999998 956.463 932.4419999999998 989.867 891.0539999999997 989.867z" />
    <glyph glyph-name="search"
      unicode="&#xF12E;"
      horiz-adv-x="1024" d=" M998.315 139.74L786.35 351.7050000000001C832.947 419.4680000000001 860.772 503.292 860.772 593.616C860.772 831.3100000000001 668.0820000000001 1024.001 430.3870000000001 1024.001S0.0020000000001 831.311 0.0020000000001 593.616C0.0020000000001 355.9220000000001 192.6920000000001 163.231 430.3870000000001 163.231C520.711 163.231 604.5360000000001 191.0560000000001 673.7570000000001 238.598L672.297 237.65L884.2620000000001 25.6849999999999C899.0350000000001 9.8629999999999 920.0150000000002 0 943.302 0C987.871 0 1023.999 36.128 1023.999 80.697C1023.999 103.983 1014.137 124.963 998.362 139.693L998.3170000000002 139.736zM161.218 593.798C161.218 742.359 281.647 862.788 430.208 862.788S699.198 742.359 699.198 593.798C699.198 445.237 578.769 324.808 430.208 324.808V324.808C281.647 324.808 161.218 445.237 161.218 593.798V593.798z" />
    <glyph glyph-name="star"
      unicode="&#xF12F;"
      horiz-adv-x="1024" d=" M1054.706 634.851C1051.6309999999999 644.333 1042.818 650.7919999999999 1032.811 650.7919999999999H659.4889999999999L549.7819999999999 1001.174C543.7679999999999 1020.231 511.9579999999999 1020.231 505.9459999999999 1001.174L396.2389999999999 650.7919999999999H22.9639999999999C12.9569999999999 650.7919999999999 4.1429999999999 644.333 1.0689999999999 634.851C-1.9150000000001 625.369 1.4819999999999 615.017 9.6069999999999 609.198L316.5999999999999 390.4220000000001L185.0899999999999 40.407C181.5549999999999 30.97 184.5839999999999 20.3430000000001 192.5709999999999 14.2040000000001C200.6029999999999 8.0200000000001 211.5739999999999 7.9280000000001 219.9289999999999 13.6990000000001L527.886 233.2550000000001L835.843 13.6990000000001C839.882 10.8580000000001 844.519 9.4390000000001 849.2009999999999 9.4390000000001C854.1129999999999 9.4390000000001 859.0709999999999 10.9960000000001 863.2019999999999 14.2040000000001C871.1889999999999 20.3430000000001 874.2189999999999 30.97 870.6829999999999 40.407L739.1729999999999 390.4220000000001L1046.166 609.1980000000001C1054.293 615.017 1057.6899999999998 625.369 1054.706 634.8510000000001z" />
    <glyph glyph-name="steps"
      unicode="&#xF130;"
      horiz-adv-x="847" d=" M75.82 305.2680000000001C67.155 325.1080000000001 59.14 345.082 51.774 365.188C47.73 376.373 43.831 387.6910000000001 40.076 399.1430000000001C36.393 410.528 32.927 421.913 29.678 433.4970000000001C23.901 454.003 18.702 474.6420000000001 14.081 495.4150000000001C10.832 510.3950000000001 8.015 525.375 5.633 540.5550000000001C3.9 551.74 2.6 563.125 1.517 574.3100000000001S0.001 598.6780000000001 0.001 611.061C0.006 627.77 1.309 644.4570000000001 3.9 660.995C5.489 670.582 7.51 680.0360000000001 9.966 689.357C14.607 706.839 20.988 723.889 29.029 740.289C33.226 748.8420000000001 37.926 757.176 43.11 765.2560000000001C48.253 773.081 53.895 780.617 60.007 787.826C67.39 796.768 75.579 805.12 84.486 812.793C91.256 818.802 98.496 824.3430000000001 106.149 829.371C112.582 833.456 119.314 837.127 126.295 840.356C134.143 843.976 142.338 846.918 150.774 849.144C155.191 850.307 159.675 851.24 164.205 851.94C169.579 852.7860000000001 175.005 853.3199999999999 180.452 853.538C191.861 853.926 203.279 853.054 214.463 850.941C225.748 848.884 236.729 845.598 247.174 841.154C252.011 839.078 256.712 836.744 261.255 834.163L271.437 827.771C277.6720000000001 823.466 283.539 818.725 288.9840000000001 813.59C294.2260000000001 808.672 299.1450000000001 803.47 303.7150000000001 798.011C309.2580000000001 791.634 314.394 784.965 319.096 778.038C324.022 770.406 328.5060000000001 762.539 332.527 754.469C336.643 746.28 340.326 737.8910000000001 343.575 729.302C349.863 712.568 354.716 695.405 358.089 677.97C359.966 668.782 361.411 659.594 362.4220000000001 650.407C363.9380000000001 637.424 364.805 624.242 365.0220000000001 610.46C365.3000000000001 590.4580000000001 364.4330000000001 570.4570000000001 362.4220000000001 550.54C362.4220000000001 545.147 361.339 539.754 360.689 534.3610000000001C359.173 522.577 357.44 510.5930000000001 355.923 498.808S352.024 470.645 350.507 456.664C349.424 445.8780000000001 348.557 435.2920000000001 348.124 424.507S348.124 402.536 348.124 391.551C349.012 375.2879999999999 350.892 359.084 353.7560000000001 343.0149999999999C355.4890000000001 333.4279999999999 357.439 323.0419999999999 359.605 314.4529999999999L104.851 244.5459999999998C94.597 264.3859999999999 84.921 284.6259999999999 75.823 305.2649999999999zM771.629 475.442C780.294 495.282 788.309 515.2560000000001 795.6750000000001 535.3620000000001C799.719 546.547 803.618 557.865 807.373 569.317S814.594 592.22 817.7710000000001 603.671C823.5480000000001 624.177 828.7470000000001 644.816 833.368 665.5889999999999C836.6170000000001 680.569 839.4340000000001 695.549 841.816 710.729C843.549 721.914 844.849 733.299 845.932 744.4839999999999S847.448 768.852 847.448 781.235C847.4449999999999 797.8779999999999 846.1419999999999 814.499 843.549 830.969C842.033 840.556 840.083 850.942 837.483 859.331C832.857 876.817 826.4749999999999 893.8679999999999 818.42 910.263C814.217 918.813 809.516 927.147 804.3389999999999 935.23C799.2689999999999 943.116 793.6999999999999 950.719 787.659 958C779.926 967.041 771.375 975.46 762.097 983.167C755.335 989.184 748.0939999999999 994.725 740.434 999.745C734.011 1003.844 727.278 1007.515 720.288 1010.73C712.445 1014.36 704.249 1017.302 695.809 1019.518C691.39 1020.672 686.906 1021.606 682.3779999999999 1022.314C677.006 1023.174 671.579 1023.708 666.131 1023.912C654.723 1024.29 643.3059999999999 1023.419 632.12 1021.315C620.837 1019.25 609.857 1015.965 599.409 1011.528C594.572 1009.452 589.871 1007.117 585.328 1004.537C581.862 1002.54 578.396 1000.343 575.1469999999999 998.145C568.9179999999999 993.834 563.0519999999999 989.093 557.5999999999999 983.964C552.3549999999999 979.048 547.4359999999999 973.845 542.8689999999999 968.385C537.3259999999999 962.008 532.1899999999999 955.339 527.4879999999999 948.412C522.636 940.776 518.2259999999999 932.908 514.2739999999999 924.843C510.1579999999999 916.654 506.4749999999999 908.265 503.2259999999999 899.6759999999999C496.9739999999999 882.7429999999999 492.1939999999999 865.377 488.9289999999999 847.745C487.0519999999999 838.557 485.6069999999999 829.3689999999999 484.5959999999998 820.182C483.0799999999998 807.199 482.2129999999999 794.017 481.9959999999998 780.235C481.7129999999998 760.233 482.5799999999998 740.232 484.5959999999998 720.315C484.5959999999998 714.922 485.6789999999999 709.529 486.3289999999998 704.136C487.8449999999999 692.3520000000001 489.5779999999999 680.368 491.0949999999999 668.5830000000001S494.9939999999999 640.4200000000001 496.5109999999999 626.239C497.5939999999999 615.653 498.4609999999998 604.867 498.8939999999998 594.0820000000001S498.8939999999998 572.1110000000001 498.8939999999998 561.126C497.9849999999998 544.864 496.1049999999998 528.6610000000001 493.2619999999998 512.59C491.5289999999998 503.003 489.5789999999998 492.6170000000001 487.4129999999998 484.2280000000001L742.6009999999999 414.7200000000001C752.9989999999999 434.693 762.6749999999998 454.933 771.6289999999999 475.4390000000001zM127.594 154.269C141.524 114.609 164.411 78.121 194.749 47.211C222.044 19.847 266.669 -9.713 311.511 3.0700000000001S376.499 64.1890000000001 380.832 101.9390000000001C386.331 143.6230000000001 382.121 185.9090000000001 368.484 225.9740000000001C366.534 232.3660000000001 363.068 234.962 355.92 232.9650000000001L133.876 166.653C126.294 164.6560000000001 125.211 160.6610000000001 127.594 154.269zM714.222 336.826L491.745 403.1380000000001C485.03 405.135 481.347 403.1380000000001 479.397 396.746C466.138 358.032 462.801 317.01 469.649 276.905C476.364 239.954 496.294 197.011 540.053 184.228S626.704 196.612 653.999 222.7769999999999C684.2330000000001 251.5479999999999 706.9100000000001 286.3269999999999 720.287 324.4419999999999C722.6700000000001 331.233 720.937 334.8279999999999 714.221 336.8259999999999z" />
    <glyph glyph-name="success"
      unicode="&#xF131;"
      horiz-adv-x="1024" d=" M512 0C794.528 0 1024 229.472 1024 512S794.528 1024 512 1024C229.472 1024 0 794.528 0 512S229.472 0 512 0zM273.278 567.675C295.827 590.2239999999999 330.314 590.2239999999999 352.8640000000001 567.675L460.304 460.235L675.1850000000001 675.116C697.734 697.665 732.221 697.665 754.7710000000001 675.116S777.32 618.0799999999999 754.7710000000001 595.531L500.0970000000001 342.184C489.4860000000001 331.573 474.8950000000001 326.267 460.3040000000001 326.267S431.1230000000001 331.573 420.5110000000001 342.184L274.6040000000001 488.091C252.0550000000001 510.64 252.0550000000001 545.127 273.278 567.6759999999999z" />
    <glyph glyph-name="surgeon-view"
      unicode="&#xF132;"
      horiz-adv-x="626" d=" M471.641 506.049V608.51L545.503 682.144C583.705 653.39 606.2800000000001 607.844 606.3430000000001 559.396V488.006C606.3910000000001 487.808 606.446 487.6999999999999 606.5090000000001 487.6999999999999L608.0100000000001 309.174H531.4430000000001V71.742C531.4430000000001 32.275 498.9500000000001 0.28 458.8690000000001 0.28S386.2950000000001 32.274 386.2950000000001 71.742V309.174H309.5160000000001L309.9350000000001 470.697C310.1720000000001 470.697 310.1890000000001 478.345 310.2270000000001 486.526H309.999V556.9789999999999C310.0150000000001 606.115 332.523 652.4189999999999 370.8390000000001 682.144L444.701 608.558V506.049C453.65 506.049 462.671 506.049 471.641 506.049zM416.435 911.49H323.468C347.0030000000001 968.887 399.836 1005.926 458.17 1005.926S569.337 968.887 592.8720000000001 911.49H499.9050000000001C493.7480000000001 930.619 476.9930000000001 943.448 458.1690000000001 943.448S422.5900000000001 930.618 416.4330000000001 911.49zM500.176 884.508H603.299C615.418 824.219 590.703 762.417 540.7529999999999 728.111S425.5379999999999 693.8050000000001 375.588 728.111C325.639 762.4169999999999 300.923 824.219 313.042 884.508H416.165C422.361 866.191 439.225 853.905 458.17 853.905S493.978 866.191 500.175 884.508z M113.778 583.381C50.94 583.381 0 635.322 0 699.394S50.94 815.407 113.778 815.407C176.616 815.407 227.556 763.466 227.556 699.394S176.616 583.381 113.778 583.381zM227.556 463.626V250.581H170.667V57.971C170.667 25.954 145.197 0 113.778 0S56.889 25.955 56.889 57.971V250.581H0V463.626C0.051 500.444 17.259 535.049 46.364 556.8629999999999C88.837 535.394 138.718 535.394 181.191 556.8629999999999C210.297 535.048 227.505 500.444 227.555 463.626z" />
    <glyph glyph-name="surgeon"
      unicode="&#xF133;"
      horiz-adv-x="1024" d=" M558.051 -31.7750000000001V216.2099999999999L706.908 365.902C783.899 307.4469999999999 829.395 214.856 829.523 116.3639999999999V-31.7750000000001H558.051zM497.724 216.21V-31.7750000000001H226.252V111.3949999999999C226.285 211.2459999999999 271.646 305.3409999999999 348.867 365.7459999999999L497.724 216.2099999999998zM442.374 838.735H251.891C300.1140000000001 951.337 408.3640000000001 1024 527.888 1024S755.662 951.336 803.885 838.735H613.402C600.787 876.261 566.457 901.431 527.888 901.431S454.989 876.261 442.374 838.735zM613.401 776.6220000000001H823.3399999999999C848.012 653.107 797.6959999999999 526.494 696.0089999999999 456.21S461.4529999999999 385.9260000000001 359.7659999999999 456.21C258.0789999999999 526.494 207.7629999999999 653.107 232.4349999999999 776.6220000000001H442.3739999999999C454.9889999999999 739.096 489.3189999999999 713.926 527.8879999999999 713.926S600.7869999999999 739.096 613.4019999999999 776.6220000000001z" />
    <glyph glyph-name="tick"
      unicode="&#xF134;"
      horiz-adv-x="1024" d=" M303.787 279.9260000000001L44.285 538.981C19.86 563.3410000000001 19.807 602.8900000000001 44.167 627.315C68.651 651.799 108.253 651.799 132.678 627.374L352.559 407.4930000000001L794.775 843.523C817.923 866.348 855.192 866.085 878.0169999999999 842.937C878.862 842.08 879.6809999999999 841.197 880.4709999999999 840.29C903.5789999999998 813.7850000000001 902.06 773.8710000000001 877.0039999999999 749.1990000000001L400.1379999999999 279.62C373.445 253.3350000000001 330.3109999999999 253.472 303.786 279.9260000000001z" />
    <glyph glyph-name="time"
      unicode="&#xF135;"
      horiz-adv-x="1024" d=" M511.349 1024C229.001 1024 0 793.698 0 511.349S229.001 0 511.349 0C793.697 0 1022.698 229.001 1022.698 511.3489999999999C1023.999 793.6969999999999 794.998 1023.9999999999998 511.349 1023.9999999999998zM742.953 295.36C732.544 281.0470000000001 716.93 273.241 701.316 273.241C690.907 273.241 680.498 275.843 671.39 282.349L482.724 415.0659999999999C481.423 416.367 481.423 417.6679999999999 480.122 417.6679999999999C477.52 420.2699999999999 474.917 422.873 472.315 425.4749999999999S468.412 430.68 467.11 433.282C465.809 435.8839999999999 464.508 438.487 463.207 442.3899999999999S461.906 448.8959999999999 460.605 452.7989999999999C460.605 454.0999999999999 459.304 455.4009999999998 459.304 456.7019999999999V781.9879999999998C459.304 810.6129999999998 482.725 834.0339999999999 511.35 834.0339999999999S563.3960000000001 810.6129999999998 563.3960000000001 781.9879999999998V482.7249999999999L731.2440000000001 365.622C754.6650000000002 350.0079999999999 759.8690000000001 318.781 742.9540000000002 295.3599999999999z" />
    <glyph glyph-name="user"
      unicode="&#xF136;"
      horiz-adv-x="939" d=" M938.099 1.55H3.167C3.167 290.631 158.989 435.171 470.633 435.171S938.099 290.631 938.099 1.55zM470.632 507.441C331.76 507.441 219.183 620.6890000000001 219.183 760.3870000000001S331.761 1013.333 470.632 1013.333C609.504 1013.333 722.081 900.085 722.081 760.3870000000001S609.503 507.441 470.632 507.441z" />
    <glyph glyph-name="video-camera-rotate"
      unicode="&#xF137;"
      horiz-adv-x="1390.684350132626" d=" M501.1927067161803 314.1053059734749C527.0693687002653 310.4299268753317 545.0489304615385 286.3412870450929 541.2742165729443 260.5142917771883C537.8968391299735 236.9223245411141 517.6325826206896 219.8864412519895 494.4876212625994 219.8864412519895C492.2525932307692 219.8864412519895 489.9678971246685 220.0354441167109 487.6832010185676 220.3831152042441C185.7060274588859 263.9413359363396 43.2105495087533 341.6706566790451 12.9631648390451 457.9914694960213C-17.9795618970822 576.9943162228117 106.4866874397878 664.2100911193634 111.801088271618 668.2828107374005C132.6613535236074 684.0273431087533 162.3127311618037 680.1036277135279 178.206266397878 659.3923639681698C194.0004668435013 638.6314335066313 180.5406292201591 618.5161771458886 159.8790335490716 602.572975193634C158.4386811246684 601.480293856764 89.6494733241379 538.5518270132627 104.6489973474801 481.6331034482758C113.5394437092838 448.0083427480107 152.7269422175066 364.3686121591512 501.1927067161803 314.0556392572945L501.1927067161803 314.1053059734749zM1247.3445272785145 674.6402237453581C1389.3433311405834 617.8208349708223 1398.8297812201592 498.8676563183025 1378.962863872679 438.8198929655173L1367.3407219098142 414.4829168381963C1362.5726574005305 404.4004552997348 1251.3179107480105 199.3738470875333 777.392551724138 199.3738470875333C776.9952139204244 199.3738470875333 776.4985399681697 199.4235151618037 776.1012021644563 199.4235151618037L824.328148541114 144.044477453581C843.3010568488063 126.0649156923078 844.046065740053 96.0658673740054 826.0168372625994 77.1426271405836C816.729051331565 67.3085018992043 804.2625602546419 62.3914385994696 791.6967330291777 62.3914385994696C779.9255841273209 62.3914385994696 768.2537686578249 66.7124945145889 759.1149855915119 75.4539384190982L624.963613877984 212.4860149814324C606.2887099416446 230.1675723713528 605.2456966790451 259.4712785145889 622.4305814748011 278.5435216127321L747.0458323183024 417.760958132626C764.5783882015916 437.2305390344827 794.5277698037135 438.6708901007958 813.8980159151193 421.188000933687C833.3179301007957 403.7051131246685 834.8576159575597 373.7557315225465 817.3250600742705 354.3358186949603L764.3300519045093 294.5363916392575C1155.4600253793103 290.9603459734749 1275.704554949602 447.0149962015916 1280.4726153846152 472.1466492944297C1290.008736254642 498.2716489336871 1297.0614927957558 562.3921305464191 1212.1800807214854 596.3148956180372C1187.8927713103449 606.0496860689655 1176.0719543342175 633.5653687002653 1185.7570780689655 657.8526781114058C1195.4422004456233 682.2393209549072 1223.2558874482759 684.4743489867374 1247.2948605623342 674.739558535809L1247.3445272785145 674.6402237453581zM943.6786663554376 829.4531924880637L1117.5142101220158 916.3709647787798L1117.5142101220158 568.6998768381964L943.6786663554376 655.6176487214855L943.6786663554376 560.4551055278514C943.6786663554376 516.996219586207 908.4645517241378 481.7821049549071 865.0056657824933 481.7821049549071L327.009491862069 481.7821049549071C283.8982770079575 481.7821049549071 248.8331638832892 516.4498789177719 248.3364912891247 559.5610937718834L248.3364912891247 923.7217248763926C248.0881549920425 944.7309920424404 256.2832582281167 964.9455823787798 271.0841134854112 979.8954391427056C285.8849687427056 994.8452959066313 306.0002237453581 1003.2390694026524 327.009491862069 1003.2390694026524L865.0056657824933 1003.2390694026524C886.0149325411139 1003.2390694026524 906.179855618037 994.8452959066313 920.9310441591512 979.8954391427056C935.6822313421752 964.9455823787798 943.8773359363394 944.7309920424404 943.6786663554376 923.7217248763926L943.6786663554376 829.4035257718833L943.6786663554376 829.4531924880637z" />
    <glyph glyph-name="video"
      unicode="&#xF138;"
      horiz-adv-x="1024" d=" M817.962 608.3109999999999V718.0889999999999C818.232 742.549 808.705 766.1 791.503 783.491S750.8570000000001 810.668 726.3960000000001 810.6669999999999H100.105C75.644 810.668 52.199 800.883 34.998 783.491S8.269 742.549 8.539 718.0889999999999V294.154C9.093 243.9790000000001 49.927 203.597 100.105 203.6H726.3960000000001C776.9660000000001 203.6 817.9620000000001 244.5950000000001 817.9620000000001 295.1660000000001V405.956L1020.318 304.778V709.489L817.9620000000001 608.311zM312.072 355.366V658.9L565.017 507.133L312.0720000000001 355.366z" />
    <glyph glyph-name="weights"
      unicode="&#xF139;"
      horiz-adv-x="1911" d=" M485.858 1024C557.429 1024 615.4490000000001 965.98 615.4490000000001 894.409V116.755C615.4490000000001 45.184 557.4290000000001 -12.836 485.8580000000001 -12.836S356.2670000000001 45.184 356.2670000000001 116.755V894.409C356.2670000000001 965.98 414.2870000000001 1024 485.8580000000001 1024zM1781.876 764.818C1853.447 764.818 1911.467 706.798 1911.467 635.227V376.045C1911.467 304.474 1853.447 246.454 1781.8760000000002 246.454S1652.2850000000003 304.474 1652.2850000000003 376.045V635.227C1652.2850000000003 706.798 1710.3050000000003 764.818 1781.8760000000002 764.818zM140.282 764.818C211.853 764.818 269.8730000000001 706.798 269.8730000000001 635.227V376.045C269.8730000000001 304.474 211.853 246.454 140.2820000000001 246.454S10.691 304.474 10.691 376.045V635.227C10.691 706.798 68.711 764.818 140.2820000000001 764.818zM1436.948 1024C1508.519 1024 1566.5390000000002 965.98 1566.5390000000002 894.409V116.755C1566.5390000000002 45.184 1508.5190000000002 -12.836 1436.9480000000003 -12.836S1307.3570000000004 45.184 1307.3570000000004 116.755V894.409C1307.3570000000004 965.98 1365.3770000000004 1024 1436.9480000000003 1024zM701.951 635.119H1220.315V375.937H701.951V635.119z" />
  </font>
</defs>
</svg>
